<svg width="856" height="380" viewBox="0 0 856 380" fill="none" xmlns="http://www.w3.org/2000/svg">
<g clip-path="url(#clip0_539_1560)">
<rect width="856" height="380" fill="#E1F7E1"/>
<path d="M834.6 52.998H663.4C651.581 52.998 642 62.0419 642 73.198V234.798C642 245.954 651.581 254.998 663.4 254.998H834.6C846.419 254.998 856 245.954 856 234.798V73.198C856 62.0419 846.419 52.998 834.6 52.998Z" fill="white" fill-opacity="0.32" stroke="#F6F8FA" stroke-width="2" stroke-dasharray="4 4"/>
<path d="M192.6 83.998H21.4C9.58111 83.998 0 93.0419 0 104.198V265.798C0 276.954 9.58111 285.998 21.4 285.998H192.6C204.419 285.998 214 276.954 214 265.798V104.198C214 93.0419 204.419 83.998 192.6 83.998Z" fill="white" fill-opacity="0.32" stroke="#F6F8FA" stroke-width="2" stroke-dasharray="4 4"/>
<rect x="-263.5" y="23.998" width="425" height="204" rx="24" fill="white"/>
<rect x="-47" y="44.498" width="92" height="164" rx="12" fill="#E8EDF2"/>
<rect x="50" y="44.498" width="92" height="79.5" rx="12" fill="#0080FF"/>
<rect x="50" y="128.998" width="92" height="79.5" rx="12" fill="#0080FF" fill-opacity="0.24"/>
<rect x="177.5" y="52.998" width="425" height="204" rx="24" fill="white"/>
<rect x="198" y="81.998" width="154" height="24" rx="12" fill="#E8EDF2"/>
<rect x="198" y="114.998" width="106" height="18" rx="9" fill="#E8EDF2"/>
<rect x="198" y="141.998" width="130" height="18" rx="9" fill="#E8EDF2"/>
<rect x="198" y="222.998" width="18" height="18" rx="9" fill="#0080FF"/>
<path d="M220.485 239.956L225.868 226.498H228.511L223.128 239.956H220.485Z" fill="#E8EDF2"/>
<rect x="233" y="222.998" width="18" height="18" rx="9" fill="#E8EDF2"/>
<rect x="371" y="72.998" width="213" height="164" rx="24" fill="#0080FF"/>
<g clip-path="url(#clip1_539_1560)">
<line x1="405.116" y1="105.818" x2="405.116" y2="204.843" stroke="#F4F5F7" stroke-opacity="0.12" stroke-width="0.376518"/>
<line x1="414.152" y1="105.818" x2="414.152" y2="204.843" stroke="#F4F5F7" stroke-opacity="0.12" stroke-width="0.376518"/>
<line x1="423.189" y1="105.818" x2="423.189" y2="204.843" stroke="#F4F5F7" stroke-opacity="0.12" stroke-width="0.376518"/>
<line x1="432.225" y1="105.818" x2="432.225" y2="204.843" stroke="#F4F5F7" stroke-opacity="0.12" stroke-width="0.376518"/>
<line x1="441.262" y1="105.818" x2="441.262" y2="204.843" stroke="#F4F5F7" stroke-opacity="0.12" stroke-width="0.376518"/>
<line x1="450.298" y1="105.818" x2="450.298" y2="204.843" stroke="#F4F5F7" stroke-opacity="0.12" stroke-width="0.376518"/>
<line x1="459.334" y1="105.818" x2="459.334" y2="204.843" stroke="#F4F5F7" stroke-opacity="0.12" stroke-width="0.376518"/>
<line x1="468.371" y1="105.818" x2="468.371" y2="204.843" stroke="#F4F5F7" stroke-opacity="0.12" stroke-width="0.376518"/>
<line x1="477.407" y1="105.818" x2="477.407" y2="204.843" stroke="#F4F5F7" stroke-opacity="0.12" stroke-width="0.376518"/>
<line x1="486.444" y1="105.818" x2="486.444" y2="204.843" stroke="#F4F5F7" stroke-opacity="0.12" stroke-width="0.376518"/>
<line x1="495.48" y1="105.818" x2="495.48" y2="204.843" stroke="#F4F5F7" stroke-opacity="0.12" stroke-width="0.376518"/>
<line x1="504.517" y1="105.818" x2="504.517" y2="204.843" stroke="#F4F5F7" stroke-opacity="0.12" stroke-width="0.376518"/>
<line x1="513.553" y1="105.818" x2="513.553" y2="204.843" stroke="#F4F5F7" stroke-opacity="0.12" stroke-width="0.376518"/>
<line x1="522.589" y1="105.818" x2="522.589" y2="204.843" stroke="#F4F5F7" stroke-opacity="0.12" stroke-width="0.376518"/>
<line x1="531.626" y1="105.818" x2="531.626" y2="204.843" stroke="#F4F5F7" stroke-opacity="0.12" stroke-width="0.376518"/>
<line x1="540.662" y1="105.818" x2="540.662" y2="204.843" stroke="#F4F5F7" stroke-opacity="0.12" stroke-width="0.376518"/>
<line x1="549.699" y1="105.818" x2="549.699" y2="204.843" stroke="#F4F5F7" stroke-opacity="0.12" stroke-width="0.376518"/>
<line x1="554.164" y1="115.044" x2="396.779" y2="115.044" stroke="#F4F5F7" stroke-opacity="0.12" stroke-width="0.376518"/>
<line x1="554.164" y1="124.08" x2="396.779" y2="124.08" stroke="#F4F5F7" stroke-opacity="0.12" stroke-width="0.376518"/>
<line x1="554.164" y1="133.116" x2="396.779" y2="133.116" stroke="#F4F5F7" stroke-opacity="0.12" stroke-width="0.376518"/>
<line x1="554.164" y1="142.153" x2="396.779" y2="142.153" stroke="#F4F5F7" stroke-opacity="0.12" stroke-width="0.376518"/>
<line x1="554.164" y1="151.189" x2="396.779" y2="151.189" stroke="#F4F5F7" stroke-opacity="0.12" stroke-width="0.376518"/>
<line x1="554.164" y1="160.226" x2="396.779" y2="160.226" stroke="#F4F5F7" stroke-opacity="0.12" stroke-width="0.376518"/>
<line x1="554.164" y1="169.262" x2="396.779" y2="169.262" stroke="#F4F5F7" stroke-opacity="0.12" stroke-width="0.376518"/>
<line x1="554.164" y1="178.299" x2="396.779" y2="178.299" stroke="#F4F5F7" stroke-opacity="0.12" stroke-width="0.376518"/>
<line x1="554.164" y1="187.335" x2="396.779" y2="187.335" stroke="#F4F5F7" stroke-opacity="0.12" stroke-width="0.376518"/>
<line x1="554.164" y1="196.372" x2="396.779" y2="196.372" stroke="#F4F5F7" stroke-opacity="0.12" stroke-width="0.376518"/>
<rect x="423.344" y="133.095" width="9.03644" height="9.03644" fill="#73B9FF"/>
<rect x="423.344" y="168.863" width="9.03644" height="9.03644" fill="#73B9FF"/>
<rect x="522.369" y="168.863" width="9.41296" height="9.03644" fill="#73B9FF"/>
<rect x="522.369" y="133.095" width="9.41296" height="9.03644" fill="#73B9FF"/>
<path d="M450.267 177.816L450.267 133.096" stroke="#2057CD" stroke-opacity="0.24" stroke-width="0.376518" stroke-linecap="round"/>
<path d="M459.299 177.816L459.299 133.096" stroke="#2057CD" stroke-opacity="0.24" stroke-width="0.376518" stroke-linecap="round"/>
<path d="M468.33 177.816L468.33 133.096" stroke="#2057CD" stroke-opacity="0.24" stroke-width="0.376518" stroke-linecap="round"/>
<path d="M477.361 177.816L477.361 133.096" stroke="#2057CD" stroke-opacity="0.24" stroke-width="0.376518" stroke-linecap="round"/>
<path d="M486.393 177.816L486.393 133.096" stroke="#2057CD" stroke-opacity="0.24" stroke-width="0.376518" stroke-linecap="round"/>
<path d="M495.424 177.816L495.424 133.096" stroke="#2057CD" stroke-opacity="0.24" stroke-width="0.376518" stroke-linecap="round"/>
<path d="M504.455 177.816L504.455 133.096" stroke="#2057CD" stroke-opacity="0.24" stroke-width="0.376518" stroke-linecap="round"/>
<path d="M513.487 177.816L513.487 133.096" stroke="#2057CD" stroke-opacity="0.24" stroke-width="0.376518" stroke-linecap="round"/>
<path d="M522.548 177.816L522.548 133.096" stroke="#2057CD" stroke-opacity="0.24" stroke-width="0.376518" stroke-linecap="round"/>
<path d="M441.233 177.816L441.233 133.096" stroke="#2057CD" stroke-opacity="0.24" stroke-width="0.376518" stroke-linecap="round"/>
<path d="M432.205 177.9L432.205 133.095" stroke="#8DB1FF" stroke-width="0.376518" stroke-linecap="round"/>
<path d="M432.205 177.9L432.205 133.095" stroke="#8DB1FF" stroke-width="0.376518" stroke-linecap="round"/>
<path d="M423.525 141.953H531.691" stroke="#2057CD" stroke-opacity="0.24" stroke-width="0.376518" stroke-linecap="round"/>
<path d="M423.525 169.054H531.691" stroke="#2057CD" stroke-opacity="0.24" stroke-width="0.376518" stroke-linecap="round"/>
<rect x="432.205" y="141.975" width="90.3421" height="27.0793" stroke="#0080FF" stroke-width="0.376518" stroke-linejoin="round"/>
<path d="M433.394 161.472V149.319H435.923V159.27H441.061V161.472H433.394ZM448.081 161.668C447.168 161.668 446.319 161.51 445.536 161.195C444.753 160.88 444.068 160.439 443.481 159.874C442.905 159.297 442.453 158.629 442.127 157.867C441.801 157.106 441.638 156.28 441.638 155.388C441.638 154.496 441.795 153.669 442.111 152.908C442.437 152.147 442.888 151.484 443.465 150.918C444.052 150.353 444.737 149.912 445.52 149.597C446.303 149.281 447.157 149.124 448.081 149.124C449.006 149.124 449.859 149.281 450.642 149.597C451.425 149.912 452.105 150.353 452.681 150.918C453.269 151.484 453.72 152.147 454.035 152.908C454.362 153.669 454.525 154.496 454.525 155.388C454.525 156.28 454.362 157.106 454.035 157.867C453.709 158.629 453.252 159.297 452.665 159.874C452.089 160.439 451.409 160.88 450.626 161.195C449.843 161.51 448.995 161.668 448.081 161.668ZM448.081 159.384C448.636 159.384 449.147 159.286 449.615 159.091C450.093 158.895 450.512 158.623 450.871 158.275C451.23 157.916 451.507 157.492 451.703 157.003C451.898 156.513 451.996 155.975 451.996 155.388C451.996 154.8 451.898 154.268 451.703 153.789C451.507 153.3 451.23 152.876 450.871 152.517C450.512 152.158 450.093 151.886 449.615 151.701C449.147 151.505 448.636 151.407 448.081 151.407C447.527 151.407 447.01 151.505 446.532 151.701C446.064 151.886 445.651 152.158 445.292 152.517C444.933 152.876 444.656 153.3 444.46 153.789C444.264 154.268 444.166 154.8 444.166 155.388C444.166 155.975 444.264 156.513 444.46 157.003C444.656 157.492 444.933 157.916 445.292 158.275C445.651 158.623 446.064 158.895 446.532 159.091C447.01 159.286 447.527 159.384 448.081 159.384ZM462.158 161.668C461.288 161.668 460.478 161.51 459.727 161.195C458.977 160.88 458.319 160.439 457.754 159.874C457.188 159.308 456.748 158.645 456.432 157.884C456.117 157.122 455.959 156.29 455.959 155.388C455.959 154.485 456.111 153.653 456.416 152.892C456.72 152.12 457.15 151.456 457.705 150.902C458.259 150.336 458.906 149.901 459.646 149.597C460.396 149.281 461.212 149.124 462.093 149.124C462.974 149.124 463.762 149.27 464.458 149.564C465.165 149.858 465.763 150.249 466.253 150.739C466.742 151.228 467.09 151.772 467.297 152.37L465.062 153.447C464.855 152.859 464.491 152.375 463.969 151.995C463.458 151.603 462.832 151.407 462.093 151.407C461.375 151.407 460.744 151.576 460.2 151.913C459.657 152.25 459.233 152.718 458.928 153.316C458.634 153.903 458.488 154.594 458.488 155.388C458.488 156.182 458.645 156.878 458.961 157.476C459.276 158.074 459.706 158.542 460.249 158.879C460.804 159.216 461.44 159.384 462.158 159.384C462.713 159.384 463.229 159.281 463.708 159.074C464.197 158.857 464.589 158.547 464.882 158.145C465.187 157.742 465.339 157.258 465.339 156.693V155.681L466.497 156.66H462.093V154.539H467.867V155.828C467.867 156.818 467.704 157.682 467.378 158.422C467.052 159.151 466.611 159.76 466.057 160.249C465.513 160.727 464.899 161.086 464.213 161.326C463.539 161.554 462.854 161.668 462.158 161.668ZM475.513 161.668C474.6 161.668 473.752 161.51 472.969 161.195C472.186 160.88 471.501 160.439 470.913 159.874C470.337 159.297 469.886 158.629 469.559 157.867C469.233 157.106 469.07 156.28 469.07 155.388C469.07 154.496 469.228 153.669 469.543 152.908C469.869 152.147 470.321 151.484 470.897 150.918C471.484 150.353 472.169 149.912 472.952 149.597C473.735 149.281 474.589 149.124 475.513 149.124C476.438 149.124 477.292 149.281 478.075 149.597C478.858 149.912 479.537 150.353 480.114 150.918C480.701 151.484 481.152 152.147 481.468 152.908C481.794 153.669 481.957 154.496 481.957 155.388C481.957 156.28 481.794 157.106 481.468 157.867C481.141 158.629 480.685 159.297 480.097 159.874C479.521 160.439 478.841 160.88 478.058 161.195C477.275 161.51 476.427 161.668 475.513 161.668ZM475.513 159.384C476.068 159.384 476.579 159.286 477.047 159.091C477.525 158.895 477.944 158.623 478.303 158.275C478.662 157.916 478.939 157.492 479.135 157.003C479.331 156.513 479.429 155.975 479.429 155.388C479.429 154.8 479.331 154.268 479.135 153.789C478.939 153.3 478.662 152.876 478.303 152.517C477.944 152.158 477.525 151.886 477.047 151.701C476.579 151.505 476.068 151.407 475.513 151.407C474.959 151.407 474.442 151.505 473.964 151.701C473.496 151.886 473.083 152.158 472.724 152.517C472.365 152.876 472.088 153.3 471.892 153.789C471.696 154.268 471.598 154.8 471.598 155.388C471.598 155.975 471.696 156.513 471.892 157.003C472.088 157.492 472.365 157.916 472.724 158.275C473.083 158.623 473.496 158.895 473.964 159.091C474.442 159.286 474.959 159.384 475.513 159.384ZM485.442 161.472V151.522H482.359V149.319H491.005V151.522H487.971V161.472H485.442ZM495.406 161.472V156.171L491.36 149.319H494.247L497.184 154.474H496.156L499.076 149.319H501.963L497.934 156.154V161.472H495.406ZM503.217 161.472V149.319H507.883C508.72 149.319 509.46 149.466 510.101 149.76C510.754 150.053 511.265 150.488 511.635 151.065C512.004 151.641 512.189 152.354 512.189 153.202C512.189 154.028 511.999 154.73 511.618 155.306C511.249 155.883 510.738 156.323 510.085 156.628C509.443 156.921 508.709 157.068 507.883 157.068H505.746V161.472H503.217ZM505.746 154.866H507.899C508.258 154.866 508.568 154.795 508.829 154.654C509.09 154.512 509.291 154.317 509.432 154.066C509.585 153.816 509.661 153.528 509.661 153.202C509.661 152.865 509.585 152.571 509.432 152.321C509.291 152.071 509.09 151.875 508.829 151.734C508.568 151.592 508.258 151.522 507.899 151.522H505.746V154.866ZM513.811 161.472V149.319H521.984V151.522H516.34V154.278H521.658V156.481H516.34V159.27H521.984V161.472H513.811Z" fill="white"/>
<rect x="423.344" y="133.095" width="108.347" height="44.8057" stroke="#0080FF" stroke-width="0.376518" stroke-linejoin="round"/>
</g>
<rect x="400.5" y="109.498" width="154.126" height="92" rx="6.17206" stroke="#F4F5F7" stroke-opacity="0.12"/>
<rect x="618.5" y="81.998" width="425" height="204" rx="24" fill="white"/>
<path d="M666.981 134.998L665.052 129.714H655.848L653.889 134.998H650.594L658.758 113.682H662.35L670.455 134.998H666.981ZM660.48 117.245L656.828 127.071H664.072L660.48 117.245ZM682.395 134.998V132.564C681.415 134.315 679.664 135.295 677.348 135.295C674.082 135.295 671.945 133.425 671.945 130.545C671.945 127.457 674.409 125.854 679.1 125.854C680.02 125.854 680.762 125.884 682.039 126.032V124.875C682.039 122.618 680.821 121.342 678.743 121.342C676.546 121.342 675.21 122.648 675.121 124.845H672.39C672.539 121.312 675.062 118.967 678.743 118.967C682.632 118.967 684.889 121.164 684.889 124.904V134.998H682.395ZM674.795 130.456C674.795 132.089 676.012 133.157 677.942 133.157C680.465 133.157 682.039 131.584 682.039 129.179V127.903C680.881 127.754 680.05 127.725 679.278 127.725C676.279 127.725 674.795 128.615 674.795 130.456Z" fill="#0080FF"/>
<path d="M716.42 128.882C716.42 132.771 713.57 134.998 709.147 134.998H701.339V113.682H708.731C713.036 113.682 715.619 115.671 715.619 119.264C715.619 121.282 714.401 123.004 712.353 123.895C714.995 124.637 716.42 126.448 716.42 128.882ZM708.523 116.295H704.337V122.707H708.523C711.106 122.707 712.501 121.49 712.501 119.501C712.501 117.512 711.106 116.295 708.523 116.295ZM708.939 125.32H704.337V132.386H708.939C711.73 132.386 713.303 131.05 713.303 128.793C713.303 126.626 711.73 125.32 708.939 125.32ZM734.968 127.131C734.968 131.851 732.237 135.295 727.991 135.295C725.765 135.295 723.865 134.167 722.737 132.178V134.998H719.946V113.682H722.944V121.965C724.043 120.036 725.854 118.967 727.991 118.967C732.207 118.967 734.968 122.351 734.968 127.131ZM731.851 127.131C731.851 123.568 729.98 121.609 727.398 121.609C724.904 121.609 722.944 123.539 722.944 127.071C722.944 130.545 724.844 132.623 727.398 132.623C729.98 132.623 731.851 130.634 731.851 127.131Z" fill="#E8EDF2"/>
<path d="M759.655 135.443C753.717 135.443 749.116 130.604 749.116 124.311C749.116 118.046 753.717 113.237 759.655 113.237C764.998 113.237 769.273 116.8 770.075 122.054H766.602C766.008 118.611 763.217 116.176 759.684 116.176C755.469 116.176 752.5 119.59 752.5 124.311C752.5 129.09 755.469 132.504 759.684 132.504C763.217 132.504 766.008 130.04 766.602 126.596H770.075C769.273 131.881 764.998 135.443 759.655 135.443ZM779.436 135.325C775.131 135.325 772.103 131.94 772.103 127.131C772.103 122.381 775.191 118.967 779.436 118.967C783.325 118.967 786.145 121.55 786.71 125.646H783.563C783.236 123.123 781.663 121.609 779.466 121.609C776.883 121.609 775.191 123.806 775.191 127.131C775.191 130.486 776.883 132.653 779.466 132.653C781.692 132.653 783.236 131.168 783.592 128.615H786.71C786.175 132.771 783.385 135.325 779.436 135.325Z" fill="#E8EDF2"/>
<path d="M808.859 134.998H802.12V113.682H808.859C815.658 113.682 819.577 118.017 819.577 124.251C819.577 130.396 815.509 134.998 808.859 134.998ZM805.386 116.503V132.178H808.711C813.609 132.178 816.252 129.15 816.252 124.251C816.252 119.442 813.639 116.503 808.711 116.503H805.386ZM821.629 127.131C821.629 122.351 824.36 118.967 828.605 118.967C830.713 118.967 832.554 120.036 833.652 121.965V113.682H836.651V134.998H833.86V132.178C832.732 134.167 830.832 135.295 828.605 135.295C824.36 135.295 821.629 131.851 821.629 127.131ZM824.746 127.131C824.746 130.634 826.587 132.623 829.199 132.623C831.752 132.623 833.652 130.545 833.652 127.071C833.652 123.539 831.693 121.609 829.199 121.609C826.587 121.609 824.746 123.568 824.746 127.131Z" fill="#E8EDF2"/>
<path d="M866.8 132.148V134.998H853.292V113.682H866.592V116.532H856.558V122.589H865.702V125.439H856.558V132.148H866.8ZM876.864 135.295C872.321 135.295 869.264 132 869.264 127.042C869.264 122.381 872.44 118.967 876.775 118.967C881.465 118.967 884.582 122.767 884.048 127.873H872.321C872.559 131.079 874.162 132.95 876.804 132.95C879.031 132.95 880.575 131.732 881.079 129.684H884.048C883.276 133.187 880.575 135.295 876.864 135.295ZM876.715 121.223C874.31 121.223 872.678 122.945 872.351 125.884H880.871C880.723 122.975 879.15 121.223 876.715 121.223Z" fill="#0080FF"/>
<path d="M661.964 175.482C655.819 175.482 651.069 170.821 651.069 164.35C651.069 158.056 655.581 153.276 661.786 153.276C667.278 153.276 670.989 156.631 672.295 161.054H668.495C667.694 158.323 665.348 156.215 661.697 156.215C657.481 156.215 654.453 159.392 654.453 164.409C654.453 169.129 657.333 172.692 662.083 172.692C666.031 172.692 668.525 170.257 669.119 166.606H661.756V163.993H672.563C672.681 170.821 668.495 175.482 661.964 175.482ZM682.029 181.093C677.903 181.093 675.231 178.896 675.053 175.334H677.962C678.14 177.531 679.565 178.718 681.999 178.718C684.701 178.718 686.126 177.264 686.126 174.562V171.712C685.235 173.612 683.454 174.711 681.317 174.711C677.398 174.711 674.607 171.475 674.607 166.843C674.607 162.153 677.279 159.006 681.228 159.006C683.484 159.006 685.265 160.104 686.334 162.093V159.303H689.124V174.503C689.124 178.629 686.482 181.093 682.029 181.093ZM677.635 166.843C677.635 170.109 679.238 172.098 681.851 172.098C684.404 172.098 686.126 170.05 686.126 166.932C686.126 163.667 684.434 161.589 681.851 161.589C679.268 161.589 677.635 163.607 677.635 166.843Z" fill="#E8EDF2"/>
<path d="M706.753 175.037H703.488V153.721H706.753V162.628H717.559V153.721H720.825V175.037H717.559V165.478H706.753V175.037ZM728.224 166.161V175.037H725.226V153.721H728.224V161.826C729.263 160.134 730.866 159.006 733.034 159.006C736.27 159.006 738.407 161.084 738.407 164.854V175.037H735.409V165.864C735.409 163.162 734.221 161.648 731.995 161.648C729.946 161.648 728.224 163.37 728.224 166.161Z" fill="#E8EDF2"/>
<path d="M755.972 175.037H752.706V153.721H755.972V175.037ZM764.006 155.651C764.006 156.779 763.115 157.64 761.839 157.64C760.562 157.64 759.642 156.779 759.642 155.651C759.642 154.493 760.562 153.662 761.839 153.662C763.115 153.662 764.006 154.493 764.006 155.651ZM763.353 175.037H760.354V159.303H763.353V175.037Z" fill="#0080FF"/>
<path d="M791.172 153.721V167.704C791.172 172.514 788.352 175.482 783.602 175.482C778.941 175.482 776.15 172.543 776.031 168.209H779.327C779.445 170.911 780.87 172.543 783.602 172.543C786.363 172.543 787.877 170.94 787.877 167.853V153.721H791.172ZM799.059 155.651C799.059 156.779 798.168 157.64 796.891 157.64C795.615 157.64 794.694 156.779 794.694 155.651C794.694 154.493 795.615 153.662 796.891 153.662C798.168 153.662 799.059 154.493 799.059 155.651ZM798.376 159.303V175.809C798.376 179.401 796.416 181.064 793.537 181.064C792.884 181.064 792.141 181.034 791.459 180.767V177.946C791.963 178.184 792.527 178.273 793.18 178.273C794.516 178.273 795.377 177.561 795.377 175.75V159.303H798.376Z" fill="#E8EDF2"/>
<path d="M816.128 175.037H812.863V153.721H816.128V163.578L825.153 153.721H828.924L819.424 164.171L829.161 175.037H825.064L816.128 165.151V175.037ZM834.816 175.037H831.818V153.721H834.816V166.339L841.555 159.303H845.088L837.815 166.932L845.771 175.037H841.911L834.816 167.586V175.037Z" fill="#E8EDF2"/>
<path d="M666.566 215.076L655.344 198.421V215.076H652.316V193.761H655.878L666.833 209.97V193.761H669.861V215.076H666.566ZM677.226 206.2V215.076H674.228V199.342H677.018V201.954C678.087 200.203 679.868 199.045 682.036 199.045C685.272 199.045 687.409 201.123 687.409 204.893V215.076H684.411V205.903C684.411 203.201 683.223 201.687 680.997 201.687C678.948 201.687 677.226 203.409 677.226 206.2Z" fill="#E8EDF2"/>
<path d="M711.514 215.521C705.339 215.521 700.678 210.682 700.678 204.389C700.678 198.095 705.339 193.315 711.514 193.315C717.689 193.315 722.35 198.095 722.35 204.389C722.35 210.682 717.689 215.521 711.514 215.521ZM711.514 212.582C716.026 212.582 718.966 208.961 718.966 204.389C718.966 199.817 716.026 196.254 711.514 196.254C707.001 196.254 704.062 199.817 704.062 204.389C704.062 208.961 707.001 212.582 711.514 212.582ZM732.08 215.373C727.627 215.373 724.361 211.87 724.361 207.209C724.361 202.548 727.627 199.045 732.08 199.045C736.533 199.045 739.799 202.548 739.799 207.209C739.799 211.87 736.533 215.373 732.08 215.373ZM732.08 212.731C734.663 212.731 736.711 210.653 736.711 207.209C736.711 203.765 734.663 201.717 732.08 201.717C729.497 201.717 727.479 203.765 727.479 207.209C727.479 210.653 729.497 212.731 732.08 212.731Z" fill="#0080FF"/>
<path d="M760.684 207.654H756.558V215.076H753.292V193.761H760.684C765.464 193.761 768.551 196.195 768.551 200.648C768.551 205.131 765.464 207.654 760.684 207.654ZM760.655 196.521H756.558V204.893H760.655C763.534 204.893 765.286 203.32 765.286 200.678C765.286 198.036 763.534 196.521 760.655 196.521ZM786.602 207.209C786.602 211.959 783.871 215.373 779.655 215.373C777.518 215.373 775.707 214.304 774.579 212.404V220.806H771.58V199.342H774.371V202.221C775.499 200.203 777.429 199.045 779.655 199.045C783.841 199.045 786.602 202.459 786.602 207.209ZM783.485 207.209C783.485 203.676 781.615 201.687 779.032 201.687C776.538 201.687 774.579 203.676 774.579 207.209C774.579 210.682 776.508 212.701 779.032 212.701C781.615 212.701 783.485 210.742 783.485 207.209Z" fill="#E8EDF2"/>
<path d="M809.756 215.521C803.581 215.521 798.92 210.682 798.92 204.389C798.92 198.095 803.581 193.315 809.756 193.315C815.931 193.315 820.592 198.095 820.592 204.389C820.592 208.693 818.425 212.286 815.1 214.156L818.663 220.479H815.308L812.28 215.254C811.478 215.432 810.617 215.521 809.756 215.521ZM809.756 212.582C814.269 212.582 817.208 208.961 817.208 204.389C817.208 199.817 814.269 196.254 809.756 196.254C805.244 196.254 802.305 199.817 802.305 204.389C802.305 208.961 805.244 212.582 809.756 212.582ZM822.604 207.209C822.604 202.459 825.335 199.045 829.58 199.045C831.837 199.045 833.737 200.203 834.835 202.251V199.342H837.626V220.806H834.627V212.404C833.499 214.304 831.688 215.373 829.58 215.373C825.335 215.373 822.604 211.959 822.604 207.209ZM825.721 207.209C825.721 210.742 827.562 212.701 830.174 212.701C832.727 212.701 834.627 210.682 834.627 207.209C834.627 203.676 832.698 201.687 830.174 201.687C827.562 201.687 825.721 203.676 825.721 207.209Z" fill="#E8EDF2"/>
<path d="M855.581 215.076H852.316V193.761H860.272C865.17 193.761 868.109 196.165 868.109 200.411C868.109 203.468 866.18 205.814 862.944 206.586L868.733 215.076H864.814L859.5 207.061H855.581V215.076ZM855.581 196.492V204.329H860.064C863.092 204.329 864.814 202.993 864.814 200.411C864.814 197.857 863.092 196.492 860.064 196.492H855.581ZM874.646 207.031V215.076H871.648V199.342H874.438V202.667C875.537 200.5 877.912 199.134 880.495 199.134V202.251C877.11 202.073 874.646 203.557 874.646 207.031Z" fill="#E8EDF2"/>
<path d="M660.777 255.115H657.511V236.739H650.564V233.8H667.723V236.739H660.777V255.115ZM679.248 252.206V254.848C678.328 255.264 677.527 255.412 676.577 255.412C673.667 255.412 671.648 253.839 671.648 250.365V241.934H668.175V239.381H671.648V234.72H674.647V239.381H679.397V241.934H674.647V249.682C674.647 251.85 675.686 252.621 677.289 252.621C678.002 252.621 678.625 252.503 679.248 252.206Z" fill="#E8EDF2"/>
<path d="M710.334 233.8V247.456C710.334 252.354 707.187 255.561 702.081 255.561C696.975 255.561 693.858 252.354 693.858 247.456V233.8H697.123V247.545C697.123 250.632 698.934 252.621 702.081 252.621C705.258 252.621 707.069 250.632 707.069 247.545V233.8H710.334ZM724.467 248.643V239.381H727.466V255.115H724.675V252.621C723.844 254.254 722.003 255.412 719.866 255.412C716.689 255.412 714.492 253.542 714.492 249.504V239.381H717.491V248.911C717.491 251.642 718.856 252.77 720.816 252.77C722.834 252.77 724.467 251.107 724.467 248.643Z" fill="#0080FF"/>
<path d="M760.728 233.8L752.891 255.115H749.298L741.461 233.8H744.964L751.169 251.315L757.462 233.8H760.728ZM775.899 239.381L769.992 255.115H766.726L760.818 239.381H764.054L768.418 251.671L772.842 239.381H775.899Z" fill="#E8EDF2"/>
<path d="M805.859 255.115L801.347 238.401L796.805 255.115H793.45L787.898 233.8H791.105L795.202 250.217L799.684 233.8H803.069L807.492 250.246L811.589 233.8H814.795L809.244 255.115H805.859ZM830.189 255.115L826.626 243.418L823.034 255.115H820.006L815.464 239.381H818.403L821.58 250.84L825.142 239.381H828.111L831.614 250.87L834.791 239.381H837.759L833.187 255.115H830.189Z" fill="#E8EDF2"/>
<path d="M854.241 255.115H850.441L857.328 244.19L851.064 233.8H854.834L859.733 242.112L864.809 233.8H868.431L862.048 244.309L868.817 255.115H864.988L859.644 246.357L854.241 255.115ZM873.354 255.115H869.969L875.55 247.07L870.325 239.381H873.799L877.688 245.318L881.577 239.381H884.813L879.647 247.159L885.169 255.115H881.725L877.51 248.851L873.354 255.115Z" fill="#E8EDF2"/>
</g>
<defs>
<clipPath id="clip0_539_1560">
<rect width="856" height="380" fill="white"/>
</clipPath>
<clipPath id="clip1_539_1560">
<rect x="400" y="108.998" width="155.126" height="93" rx="6.67206" fill="white"/>
</clipPath>
</defs>
</svg>
