<svg width="422" height="380" viewBox="0 0 422 380" fill="none" xmlns="http://www.w3.org/2000/svg">
<g clip-path="url(#clip0_539_1538)">
<rect width="422" height="380" rx="24" fill="#E8EDF2"/>
<rect width="422" height="380" rx="24" fill="#F7EEE5"/>
<path d="M274.297 35.998H147.811C139.079 35.998 132 43.0769 132 51.809V178.297C132 187.029 139.079 194.108 147.811 194.108H274.297C283.029 194.108 290.107 187.029 290.107 178.297V51.809C290.107 43.0769 283.029 35.998 274.297 35.998Z" fill="white" fill-opacity="0.44" stroke="#D8DDE3" stroke-width="2" stroke-dasharray="4 4"/>
<path d="M445.297 71.998H318.811C310.079 71.998 303 79.0769 303 87.809V214.297C303 223.029 310.079 230.108 318.811 230.108H445.297C454.029 230.108 461.107 223.029 461.107 214.297V87.809C461.107 79.0769 454.029 71.998 445.297 71.998Z" fill="white" fill-opacity="0.12" stroke="#D8DDE3" stroke-width="2" stroke-dasharray="4 4"/>
<path d="M103.297 10.998H-23.1893C-31.9213 10.998 -39 18.0769 -39 26.809V153.297C-39 162.029 -31.9213 169.108 -23.1893 169.108H103.297C112.029 169.108 119.107 162.029 119.107 153.297V26.809C119.107 18.0769 112.029 10.998 103.297 10.998Z" fill="white" fill-opacity="0.12" stroke="#D8DDE3" stroke-width="2" stroke-dasharray="4 4"/>
<path d="M237.031 79.9633L110.781 87.6852C102.065 88.2182 95.4321 95.716 95.9652 104.432L103.687 230.684C104.22 239.4 111.718 246.033 120.433 245.5L246.683 237.778C255.399 237.245 262.032 229.747 261.499 221.031L253.778 94.7795C253.245 86.0636 245.747 79.4302 237.031 79.9633Z" fill="white"/>
<path d="M177.69 157.896C170.886 162.122 161.907 165.075 153.849 163.935C143.404 162.444 139.042 152.23 142.677 142.824C147.326 130.689 161.547 127.149 173.203 126.276L209.805 123.668L210.399 132.002C195.082 132.193 176.561 142.353 177.669 157.897C178.776 173.442 160.283 183.578 144.966 183.769L145.559 192.103L182.162 189.495C193.814 188.58 208.04 185.103 212.715 172.945C216.33 163.541 211.965 153.298 201.543 151.827C193.478 150.687 184.499 153.648 177.702 157.866L177.704 157.888L177.69 157.896Z" fill="#0080FF"/>
<path d="M237.031 79.9633L110.781 87.6852C102.065 88.2182 95.4321 95.716 95.9652 104.432L103.687 230.684C104.22 239.4 111.718 246.033 120.433 245.5L246.683 237.778C255.399 237.245 262.032 229.747 261.499 221.031L253.778 94.7795C253.245 86.0636 245.747 79.4302 237.031 79.9633Z" stroke="#0080FF" stroke-width="2"/>
<path fill-rule="evenodd" clip-rule="evenodd" d="M211.997 215.528C207.915 217.861 209.757 221.723 211.24 224.858C208.94 224.838 206.804 225.987 205.913 228.213C205.259 229.835 205.483 231.665 206.645 234.628C208.511 239.382 214.401 243.05 218.606 245.704C219.388 246.19 219.407 247.924 219.391 248.733C219.376 249.452 219.735 250.14 220.43 250.038C223.653 249.567 227.094 249.261 230.201 248.358C231.528 247.97 232.672 246.057 233.54 243.775C234.856 245.485 236.294 247.323 237.765 247.33C238.857 247.341 243.603 246.757 242.729 244.78C240.032 238.692 244.705 235.191 245.394 226.867C245.723 222.882 245.774 212.049 240.615 212.378C238.91 212.487 237.497 213.122 236.955 213.942C236.842 214.111 235.364 211.025 232.951 210.566C230.614 210.122 228.262 211.23 227.375 213.485C225.891 210.987 222.808 210.733 220.382 211.918C219.15 212.517 217.77 213.758 218.103 215.893C216.818 214.402 214.041 214.364 211.997 215.528Z" fill="black"/>
<path fill-rule="evenodd" clip-rule="evenodd" d="M213.638 218.132C210.708 220.057 215.289 226.517 214.715 227.117C214.142 227.713 209.64 226.848 208.887 228.688C208.336 230.034 208.446 231.555 209.416 234.006C210.971 237.933 216.257 240.822 219.782 243.007C222.512 244.7 221.141 246.799 222.802 246.555C225.508 246.159 225.727 246.098 228.615 245.647C229.888 245.448 230.853 240.908 232.085 239.251C233.761 240.454 238.175 245.618 239.407 243.962C239.184 242.532 239.161 242.743 238.961 241.103C238.044 235.596 241.724 234.257 242.321 227.373C242.606 224.077 244.052 216.308 239.13 215.823C236.977 215.61 236.913 217.307 236.051 217.121C235.187 216.936 234.47 213.886 231.905 213.916C228.724 213.953 228.816 217.161 227.572 217.236C226.327 217.315 225.591 213.23 221.85 214.38C219.12 215.219 220.854 218.597 219.654 219.19C218.455 219.786 216.361 216.343 213.638 218.132Z" fill="white"/>
<path d="M225.748 227.061C225.623 226.262 224.874 225.716 224.075 225.84C223.276 225.965 222.73 226.714 222.855 227.513L224.21 236.194C224.335 236.993 225.084 237.539 225.883 237.414C226.682 237.29 227.228 236.541 227.104 235.742L225.748 227.061Z" fill="black"/>
<path d="M231.536 226.157C231.411 225.358 230.662 224.811 229.863 224.936C229.064 225.061 228.517 225.81 228.642 226.609L229.998 235.289C230.123 236.088 230.871 236.635 231.67 236.51C232.47 236.385 233.016 235.637 232.891 234.837L231.536 226.157Z" fill="black"/>
<path d="M237.322 225.253C237.197 224.454 236.448 223.907 235.649 224.032C234.85 224.157 234.304 224.906 234.429 225.705L235.784 234.385C235.909 235.184 236.658 235.731 237.457 235.606C238.256 235.481 238.802 234.732 238.678 233.933L237.322 225.253Z" fill="black"/>
</g>
<defs>
<clipPath id="clip0_539_1538">
<rect width="422" height="380" rx="24" fill="white"/>
</clipPath>
</defs>
</svg>
