<svg width="444" height="380" viewBox="0 0 444 380" fill="none" xmlns="http://www.w3.org/2000/svg">
<rect width="444" height="380" fill="#E8EDF2"/>
<rect width="444" height="380" fill="#EAE4FC"/>
<g clip-path="url(#clip0_539_1738)">
<path d="M72 56.998C72 39.3249 86.3269 24.998 104 24.998H341C358.673 24.998 373 39.3249 373 56.998V379.998H72V56.998Z" fill="white"/>
<rect x="72" y="19.998" width="301" height="360" fill="url(#paint0_linear_539_1738)"/>
<path fill-rule="evenodd" clip-rule="evenodd" d="M106.938 38.748C106.938 37.8032 107.313 36.8971 107.981 36.229C108.649 35.5609 109.555 35.1855 110.5 35.1855C111.445 35.1855 112.351 35.5609 113.019 36.229C113.687 36.8971 114.063 37.8032 114.063 38.748C114.063 39.6929 113.687 40.599 113.019 41.2671C112.351 41.9352 111.445 42.3105 110.5 42.3105C109.555 42.3105 108.649 41.9352 107.981 41.2671C107.313 40.599 106.938 39.6929 106.938 38.748ZM103.97 49.9145C103.996 48.2001 104.696 46.565 105.918 45.3621C107.14 44.1592 108.785 43.4849 110.5 43.4849C112.215 43.4849 113.86 44.1592 115.082 45.3621C116.304 46.565 117.004 48.2001 117.03 49.9145C117.033 50.0299 117.001 50.1434 116.939 50.2411C116.878 50.3389 116.789 50.4166 116.685 50.4647C114.744 51.3543 112.634 51.8134 110.5 51.8105C108.294 51.8105 106.199 51.3292 104.316 50.4647C104.211 50.4166 104.122 50.3389 104.061 50.2411C103.999 50.1434 103.968 50.0299 103.97 49.9145Z" fill="#E8EDF2"/>
<rect x="101" y="240.998" width="32" height="32" rx="3.54762" fill="#0080FF"/>
<path d="M72 226.998H373" stroke="#E8EDF2"/>
<path d="M72 62.998H373" stroke="#E8EDF2"/>
<rect x="171" y="240.998" width="32" height="32" rx="3.54762" fill="#E8EDF2"/>
<rect x="241" y="240.998" width="32" height="32" rx="3.54762" fill="#E8EDF2"/>
<rect x="311" y="240.998" width="32" height="32" rx="3.54762" fill="#E8EDF2"/>
<rect x="101" y="74.998" width="64" height="64" rx="32" fill="#E8EDF2"/>
<rect x="189" y="82.998" width="47" height="18" rx="9" fill="#0080FF"/>
<rect x="243" y="82.998" width="47" height="18" rx="9" fill="#E8EDF2"/>
<rect x="297" y="82.998" width="47" height="18" rx="9" fill="#E8EDF2"/>
<rect x="189" y="112.998" width="155" height="18" rx="9" fill="#E8EDF2"/>
<rect x="101" y="150.998" width="243" height="18" rx="9" fill="#E8EDF2"/>
<rect x="101" y="180.998" width="243" height="12" rx="6" fill="#E8EDF2"/>
<rect x="101" y="200.998" width="167" height="12" rx="6" fill="#E8EDF2"/>
<rect x="183" y="37.998" width="79" height="12" rx="6" fill="#E8EDF2"/>
</g>
<defs>
<linearGradient id="paint0_linear_539_1738" x1="222.5" y1="19.998" x2="222.5" y2="379.998" gradientUnits="userSpaceOnUse">
<stop stop-color="white"/>
<stop offset="1" stop-color="#E8EDF2"/>
</linearGradient>
<clipPath id="clip0_539_1738">
<path d="M72 56.998C72 39.3249 86.3269 24.998 104 24.998H341C358.673 24.998 373 39.3249 373 56.998V379.998H72V56.998Z" fill="white"/>
</clipPath>
</defs>
</svg>
