<svg width="422" height="380" viewBox="0 0 422 380" fill="none" xmlns="http://www.w3.org/2000/svg">
<g clip-path="url(#clip0_539_1687)">
<rect width="422" height="380" fill="#E8EDF2"/>
<rect width="422" height="380" fill="#E3EAFC"/>
<path d="M76.3633 166.451H-41.8544C-48.5622 166.451 -54 171.889 -54 178.597V228.799C-54 235.507 -48.5622 240.944 -41.8544 240.944H76.3633C83.0712 240.944 88.5089 235.507 88.5089 228.799V178.597C88.5089 171.889 83.0712 166.451 76.3633 166.451Z" fill="white"/>
<mask id="mask0_539_1687" style="mask-type:luminance" maskUnits="userSpaceOnUse" x="-36" y="185" width="106" height="38">
<path d="M69.8873 185.074H-35.375V222.321H69.8873V185.074Z" fill="white"/>
</mask>
<g mask="url(#mask0_539_1687)">
<path d="M2.49203 210.203C1.73376 210.203 1.02965 210.062 0.37971 209.78C-0.270235 209.488 -0.822687 209.092 -1.27765 208.594C-1.73261 208.096 -2.06841 207.522 -2.28506 206.872L-0.660201 206.189C-0.367726 206.937 0.0601538 207.511 0.623439 207.912C1.18672 208.313 1.83667 208.513 2.57327 208.513C3.00657 208.513 3.3857 208.448 3.71067 208.318C4.03565 208.177 4.28479 207.982 4.45811 207.733C4.64226 207.484 4.73434 207.197 4.73434 206.872C4.73434 206.428 4.60976 206.076 4.36062 205.816C4.11147 205.556 3.74317 205.35 3.25571 205.198L0.980908 204.483C0.0709863 204.202 -0.622287 203.774 -1.09891 203.2C-1.57554 202.615 -1.81385 201.932 -1.81385 201.152C-1.81385 200.47 -1.64595 199.874 -1.31015 199.365C-0.974341 198.845 -0.513964 198.439 0.0709863 198.146C0.666769 197.854 1.34379 197.708 2.10206 197.708C2.82783 197.708 3.48861 197.838 4.08439 198.098C4.68017 198.347 5.1893 198.693 5.61176 199.137C6.04506 199.582 6.3592 200.096 6.55418 200.681L4.96182 201.38C4.7235 200.741 4.34979 200.248 3.84066 199.901C3.34237 199.555 2.76284 199.381 2.10206 199.381C1.70126 199.381 1.34921 199.452 1.0459 199.592C0.742595 199.722 0.504282 199.917 0.330964 200.177C0.168478 200.427 0.0872349 200.719 0.0872349 201.055C0.0872349 201.445 0.211808 201.791 0.460953 202.095C0.710098 202.398 1.08923 202.626 1.59836 202.777L3.71067 203.443C4.67476 203.736 5.40053 204.158 5.88799 204.711C6.37544 205.252 6.61917 205.929 6.61917 206.742C6.61917 207.413 6.44044 208.009 6.08297 208.529C5.73633 209.049 5.25429 209.461 4.63684 209.764C4.0194 210.057 3.30446 210.203 2.49203 210.203ZM12.3949 210.105C11.4742 210.105 10.7592 209.845 10.2501 209.325C9.74098 208.805 9.48642 208.074 9.48642 207.132V202.875H7.9428V201.217H8.18653C8.59816 201.217 8.91772 201.098 9.1452 200.86C9.37268 200.622 9.48642 200.297 9.48642 199.885V199.202H11.3225V201.217H13.3211V202.875H11.3225V207.051C11.3225 207.354 11.3713 207.614 11.4687 207.83C11.5662 208.036 11.7233 208.199 11.94 208.318C12.1566 208.426 12.4382 208.48 12.7849 208.48C12.8715 208.48 12.969 208.475 13.0774 208.464C13.1857 208.453 13.2886 208.443 13.3861 208.432V210.008C13.2344 210.029 13.0665 210.051 12.8824 210.073C12.6982 210.094 12.5357 210.105 12.3949 210.105ZM17.7308 210.203C17.135 210.203 16.6097 210.1 16.1547 209.894C15.7106 209.677 15.3639 209.385 15.1148 209.017C14.8656 208.638 14.7411 208.193 14.7411 207.684C14.7411 207.208 14.844 206.78 15.0498 206.401C15.2664 206.021 15.5968 205.702 16.041 205.442C16.4851 205.182 17.0429 204.998 17.7146 204.89L20.7693 204.386V205.832L18.072 206.303C17.5846 206.39 17.2271 206.547 16.9996 206.774C16.7721 206.991 16.6584 207.273 16.6584 207.619C16.6584 207.955 16.783 208.231 17.0321 208.448C17.2921 208.654 17.6225 208.757 18.0233 208.757C18.5216 208.757 18.9549 208.648 19.3232 208.432C19.7023 208.215 19.9948 207.928 20.2006 207.571C20.4064 207.202 20.5093 206.796 20.5093 206.352V204.093C20.5093 203.66 20.3468 203.308 20.0219 203.037C19.7077 202.756 19.2853 202.615 18.7545 202.615C18.267 202.615 17.8391 202.745 17.4708 203.005C17.1134 203.254 16.848 203.579 16.6746 203.98L15.1473 203.216C15.3098 202.783 15.5752 202.403 15.9435 202.078C16.3118 201.743 16.7396 201.483 17.2271 201.299C17.7254 201.114 18.2508 201.022 18.8032 201.022C19.4965 201.022 20.1085 201.152 20.6393 201.412C21.1809 201.672 21.598 202.035 21.8904 202.501C22.1938 202.956 22.3454 203.487 22.3454 204.093V210.008H20.5906V208.415L20.9643 208.464C20.7585 208.822 20.4931 209.13 20.1681 209.39C19.854 209.65 19.4911 209.851 19.0794 209.992C18.6786 210.132 18.2291 210.203 17.7308 210.203ZM24.4923 210.008V201.217H26.2471V202.988L26.0846 202.728C26.2796 202.154 26.5937 201.743 27.027 201.494C27.4603 201.234 27.9803 201.104 28.5869 201.104H29.1231V202.777H28.3594C27.7528 202.777 27.2599 202.967 26.8808 203.346C26.5125 203.714 26.3283 204.245 26.3283 204.938V210.008H24.4923ZM34.3401 210.105C33.4193 210.105 32.7044 209.845 32.1952 209.325C31.6861 208.805 31.4316 208.074 31.4316 207.132V202.875H29.8879V201.217H30.1317C30.5433 201.217 30.8629 201.098 31.0903 200.86C31.3178 200.622 31.4316 200.297 31.4316 199.885V199.202H33.2676V201.217H35.2662V202.875H33.2676V207.051C33.2676 207.354 33.3164 207.614 33.4139 207.83C33.5114 208.036 33.6684 208.199 33.8851 208.318C34.1017 208.426 34.3834 208.48 34.73 208.48C34.8167 208.48 34.9142 208.475 35.0225 208.464C35.1308 208.453 35.2337 208.443 35.3312 208.432V210.008C35.1796 210.029 35.0117 210.051 34.8275 210.073C34.6434 210.094 34.4809 210.105 34.3401 210.105Z" fill="#0080FF"/>
</g>
<path d="M134.162 200.323L137.507 201.997C138.6 202.544 139.146 202.818 139.321 203.187C139.473 203.51 139.473 203.884 139.321 204.206C139.146 204.575 138.6 204.849 137.507 205.396L134.162 207.071C133.251 207.526 132.798 207.754 132.427 207.699C132.105 207.65 131.817 207.472 131.629 207.205C131.415 206.899 131.415 206.389 131.415 205.372V202.021C131.415 201.003 131.415 200.494 131.629 200.188C131.817 199.921 132.105 199.741 132.427 199.694C132.798 199.639 133.251 199.867 134.162 200.323Z" fill="#0080FF"/>
<path d="M91.7471 203.652H135.471" stroke="#0080FF" stroke-width="1.64156"/>
<path d="M91.7475 200.431C93.5363 200.431 94.9863 201.882 94.9863 203.669C94.9863 205.459 93.5363 206.908 91.7475 206.908C89.9587 206.908 88.5087 205.459 88.5087 203.669C88.5087 201.882 89.9587 200.431 91.7475 200.431Z" fill="#0080FF"/>
<path d="M269.799 166.451H151.581C144.873 166.451 139.436 171.889 139.436 178.597V228.799C139.436 235.507 144.873 240.944 151.581 240.944H269.799C276.507 240.944 281.944 235.507 281.944 228.799V178.597C281.944 171.889 276.507 166.451 269.799 166.451Z" fill="white"/>
<mask id="mask1_539_1687" style="mask-type:luminance" maskUnits="userSpaceOnUse" x="158" y="185" width="106" height="38">
<path d="M263.323 185.074H158.061V222.321H263.323V185.074Z" fill="white"/>
</mask>
<g mask="url(#mask1_539_1687)">
<path d="M181.468 210.008L177.179 197.903H179.242L182.752 208.237H182.346L185.839 197.903H187.903L183.613 210.008H181.468ZM192.466 210.203C191.589 210.203 190.809 210.002 190.126 209.602C189.455 209.19 188.929 208.638 188.55 207.944C188.171 207.24 187.981 206.455 187.981 205.588C187.981 204.7 188.171 203.915 188.55 203.232C188.94 202.55 189.46 202.013 190.11 201.624C190.76 201.223 191.497 201.022 192.32 201.022C192.981 201.022 193.571 201.136 194.091 201.364C194.611 201.591 195.05 201.905 195.407 202.306C195.764 202.696 196.035 203.145 196.219 203.655C196.414 204.164 196.512 204.705 196.512 205.279C196.512 205.42 196.506 205.567 196.496 205.718C196.485 205.87 196.463 206.011 196.431 206.141H189.428V204.678H195.391L194.513 205.344C194.622 204.814 194.584 204.342 194.4 203.931C194.226 203.508 193.955 203.178 193.587 202.94C193.23 202.691 192.807 202.566 192.32 202.566C191.832 202.566 191.399 202.691 191.02 202.94C190.641 203.178 190.348 203.525 190.142 203.98C189.937 204.424 189.855 204.965 189.899 205.604C189.845 206.2 189.926 206.72 190.142 207.164C190.37 207.608 190.684 207.955 191.085 208.204C191.497 208.453 191.962 208.578 192.482 208.578C193.013 208.578 193.463 208.459 193.831 208.22C194.21 207.982 194.508 207.673 194.725 207.294L196.219 208.025C196.046 208.437 195.775 208.811 195.407 209.147C195.05 209.472 194.616 209.732 194.107 209.927C193.609 210.111 193.062 210.203 192.466 210.203ZM198.304 210.008V201.217H200.059V202.988L199.896 202.728C200.091 202.154 200.405 201.743 200.839 201.494C201.272 201.234 201.792 201.104 202.398 201.104H202.935V202.777H202.171C201.564 202.777 201.072 202.967 200.692 203.346C200.324 203.714 200.14 204.245 200.14 204.938V210.008H198.304ZM207.44 210.203C206.541 210.203 205.751 209.981 205.068 209.537C204.397 209.092 203.925 208.497 203.655 207.749L205.068 207.083C205.307 207.581 205.631 207.977 206.043 208.269C206.466 208.562 206.931 208.708 207.44 208.708C207.874 208.708 208.226 208.61 208.497 208.415C208.767 208.22 208.903 207.955 208.903 207.619C208.903 207.403 208.843 207.229 208.724 207.099C208.605 206.958 208.453 206.845 208.269 206.758C208.096 206.671 207.917 206.606 207.733 206.563L206.352 206.173C205.594 205.956 205.025 205.632 204.646 205.198C204.277 204.754 204.093 204.24 204.093 203.655C204.093 203.124 204.229 202.663 204.499 202.273C204.77 201.873 205.144 201.564 205.621 201.347C206.097 201.131 206.633 201.022 207.229 201.022C208.031 201.022 208.746 201.223 209.374 201.624C210.002 202.013 210.446 202.561 210.706 203.265L209.293 203.931C209.12 203.508 208.843 203.173 208.464 202.923C208.096 202.674 207.679 202.55 207.213 202.55C206.812 202.55 206.493 202.647 206.254 202.842C206.016 203.026 205.897 203.27 205.897 203.573C205.897 203.779 205.951 203.952 206.059 204.093C206.168 204.223 206.309 204.332 206.482 204.418C206.655 204.494 206.834 204.559 207.018 204.613L208.448 205.036C209.174 205.242 209.732 205.567 210.122 206.011C210.511 206.444 210.706 206.964 210.706 207.571C210.706 208.09 210.566 208.551 210.284 208.952C210.013 209.342 209.634 209.65 209.147 209.878C208.659 210.094 208.09 210.203 207.44 210.203ZM212.505 210.008V201.217H214.342V210.008H212.505ZM212.505 200.015V197.903H214.342V200.015H212.505ZM220.729 210.203C219.884 210.203 219.11 210.002 218.406 209.602C217.712 209.201 217.16 208.654 216.748 207.96C216.337 207.267 216.131 206.482 216.131 205.604C216.131 204.716 216.337 203.931 216.748 203.248C217.16 202.555 217.712 202.013 218.406 201.624C219.099 201.223 219.873 201.022 220.729 201.022C221.596 201.022 222.37 201.223 223.053 201.624C223.746 202.013 224.293 202.555 224.694 203.248C225.105 203.931 225.311 204.716 225.311 205.604C225.311 206.493 225.105 207.283 224.694 207.977C224.282 208.67 223.73 209.217 223.036 209.618C222.343 210.008 221.574 210.203 220.729 210.203ZM220.729 208.497C221.249 208.497 221.71 208.372 222.11 208.123C222.511 207.874 222.825 207.533 223.053 207.099C223.291 206.655 223.41 206.157 223.41 205.604C223.41 205.052 223.291 204.559 223.053 204.126C222.825 203.693 222.511 203.351 222.11 203.102C221.71 202.853 221.249 202.728 220.729 202.728C220.22 202.728 219.76 202.853 219.348 203.102C218.947 203.351 218.628 203.693 218.389 204.126C218.162 204.559 218.048 205.052 218.048 205.604C218.048 206.157 218.162 206.655 218.389 207.099C218.628 207.533 218.947 207.874 219.348 208.123C219.76 208.372 220.22 208.497 220.729 208.497ZM227.104 210.008V201.217H228.859V202.94L228.647 202.712C228.864 202.16 229.211 201.743 229.687 201.461C230.164 201.169 230.716 201.022 231.345 201.022C231.995 201.022 232.569 201.163 233.067 201.445C233.565 201.726 233.955 202.116 234.237 202.615C234.519 203.113 234.659 203.687 234.659 204.337V210.008H232.84V204.825C232.84 204.38 232.758 204.007 232.596 203.703C232.433 203.389 232.2 203.151 231.897 202.988C231.605 202.815 231.269 202.728 230.89 202.728C230.511 202.728 230.169 202.815 229.866 202.988C229.574 203.151 229.346 203.389 229.184 203.703C229.021 204.017 228.94 204.391 228.94 204.825V210.008H227.104ZM241.252 210.008V199.527H238.929V197.903H243.153V210.008H241.252Z" fill="#0080FF"/>
</g>
<path d="M463.363 166.451H345.146C338.438 166.451 333 171.889 333 178.597V228.799C333 235.507 338.438 240.944 345.146 240.944H463.363C470.071 240.944 475.509 235.507 475.509 228.799V178.597C475.509 171.889 470.071 166.451 463.363 166.451Z" fill="white"/>
<mask id="mask2_539_1687" style="mask-type:luminance" maskUnits="userSpaceOnUse" x="351" y="185" width="106" height="38">
<path d="M456.887 185.074H351.625V222.321H456.887V185.074Z" fill="white"/>
</mask>
<g mask="url(#mask2_539_1687)">
<path d="M375.033 210.008L370.743 197.903H372.807L376.316 208.237H375.91L379.403 197.903H381.467L377.177 210.008H375.033ZM386.03 210.203C385.153 210.203 384.373 210.003 383.69 209.602C383.019 209.19 382.493 208.638 382.114 207.944C381.735 207.24 381.546 206.455 381.546 205.588C381.546 204.7 381.735 203.915 382.114 203.232C382.504 202.55 383.024 202.014 383.674 201.624C384.324 201.223 385.061 201.023 385.884 201.023C386.545 201.023 387.135 201.136 387.655 201.364C388.175 201.591 388.614 201.905 388.971 202.306C389.329 202.696 389.599 203.146 389.784 203.655C389.979 204.164 390.076 204.706 390.076 205.28C390.076 205.421 390.071 205.567 390.06 205.718C390.049 205.87 390.027 206.011 389.995 206.141H382.992V204.679H388.955L388.078 205.345C388.186 204.814 388.148 204.343 387.964 203.931C387.79 203.509 387.52 203.178 387.151 202.94C386.794 202.691 386.371 202.566 385.884 202.566C385.397 202.566 384.963 202.691 384.584 202.94C384.205 203.178 383.912 203.525 383.707 203.98C383.501 204.424 383.42 204.966 383.463 205.605C383.409 206.2 383.49 206.72 383.707 207.165C383.934 207.609 384.248 207.955 384.649 208.204C385.061 208.454 385.527 208.578 386.046 208.578C386.577 208.578 387.027 208.459 387.395 208.221C387.774 207.982 388.072 207.674 388.289 207.295L389.784 208.026C389.61 208.437 389.34 208.811 388.971 209.147C388.614 209.472 388.18 209.732 387.671 209.927C387.173 210.111 386.626 210.203 386.03 210.203ZM391.868 210.008V201.218H393.623V202.989L393.46 202.729C393.655 202.155 393.97 201.743 394.403 201.494C394.836 201.234 395.356 201.104 395.963 201.104H396.499V202.777H395.735C395.129 202.777 394.636 202.967 394.257 203.346C393.888 203.714 393.704 204.245 393.704 204.938V210.008H391.868ZM401.005 210.203C400.106 210.203 399.315 209.981 398.632 209.537C397.961 209.093 397.49 208.497 397.219 207.75L398.632 207.083C398.871 207.582 399.196 207.977 399.607 208.269C400.03 208.562 400.496 208.708 401.005 208.708C401.438 208.708 401.79 208.611 402.061 208.416C402.332 208.221 402.467 207.955 402.467 207.62C402.467 207.403 402.407 207.23 402.288 207.1C402.169 206.959 402.018 206.845 401.833 206.758C401.66 206.672 401.481 206.607 401.297 206.563L399.916 206.173C399.158 205.957 398.589 205.632 398.21 205.198C397.842 204.754 397.657 204.24 397.657 203.655C397.657 203.124 397.793 202.664 398.064 202.274C398.335 201.873 398.708 201.564 399.185 201.348C399.661 201.131 400.198 201.023 400.793 201.023C401.595 201.023 402.31 201.223 402.938 201.624C403.567 202.014 404.011 202.561 404.271 203.265L402.857 203.931C402.684 203.509 402.407 203.173 402.028 202.924C401.66 202.675 401.243 202.55 400.777 202.55C400.376 202.55 400.057 202.647 399.819 202.842C399.58 203.027 399.461 203.27 399.461 203.574C399.461 203.779 399.515 203.953 399.624 204.094C399.732 204.224 399.873 204.332 400.046 204.419C400.219 204.494 400.398 204.559 400.582 204.614L402.012 205.036C402.738 205.242 403.296 205.567 403.686 206.011C404.076 206.444 404.271 206.964 404.271 207.571C404.271 208.091 404.13 208.551 403.848 208.952C403.577 209.342 403.198 209.651 402.711 209.878C402.223 210.095 401.655 210.203 401.005 210.203ZM406.07 210.008V201.218H407.906V210.008H406.07ZM406.07 200.015V197.903H407.906V200.015H406.07ZM414.293 210.203C413.448 210.203 412.674 210.003 411.97 209.602C411.277 209.201 410.724 208.654 410.312 207.961C409.901 207.267 409.695 206.482 409.695 205.605C409.695 204.716 409.901 203.931 410.312 203.249C410.724 202.555 411.277 202.014 411.97 201.624C412.663 201.223 413.438 201.023 414.293 201.023C415.16 201.023 415.935 201.223 416.617 201.624C417.31 202.014 417.857 202.555 418.258 203.249C418.67 203.931 418.875 204.716 418.875 205.605C418.875 206.493 418.67 207.284 418.258 207.977C417.846 208.67 417.294 209.217 416.601 209.618C415.907 210.008 415.138 210.203 414.293 210.203ZM414.293 208.497C414.813 208.497 415.274 208.372 415.675 208.123C416.075 207.874 416.389 207.533 416.617 207.1C416.855 206.655 416.974 206.157 416.974 205.605C416.974 205.052 416.855 204.559 416.617 204.126C416.389 203.693 416.075 203.352 415.675 203.102C415.274 202.853 414.813 202.729 414.293 202.729C413.784 202.729 413.324 202.853 412.912 203.102C412.511 203.352 412.192 203.693 411.954 204.126C411.726 204.559 411.612 205.052 411.612 205.605C411.612 206.157 411.726 206.655 411.954 207.1C412.192 207.533 412.511 207.874 412.912 208.123C413.324 208.372 413.784 208.497 414.293 208.497ZM420.668 210.008V201.218H422.423V202.94L422.212 202.712C422.428 202.16 422.775 201.743 423.252 201.461C423.728 201.169 424.281 201.023 424.909 201.023C425.559 201.023 426.133 201.163 426.631 201.445C427.13 201.727 427.52 202.117 427.801 202.615C428.083 203.113 428.224 203.687 428.224 204.337V210.008H426.404V204.825C426.404 204.381 426.323 204.007 426.16 203.704C425.998 203.389 425.765 203.151 425.461 202.989C425.169 202.815 424.833 202.729 424.454 202.729C424.075 202.729 423.734 202.815 423.43 202.989C423.138 203.151 422.91 203.389 422.748 203.704C422.585 204.018 422.504 204.391 422.504 204.825V210.008H420.668ZM434.816 210.008V199.528H432.493V197.903H436.717V210.008H434.816Z" fill="#0080FF"/>
</g>
<path d="M327.598 78.8694L330.944 80.5439C332.037 81.0912 332.583 81.3649 332.757 81.7341C332.91 82.0564 332.91 82.4305 332.757 82.7527C332.583 83.122 332.037 83.3957 330.944 83.943L327.598 85.6175C326.688 86.0726 326.234 86.3009 325.864 86.2458C325.541 86.1972 325.253 86.0191 325.065 85.7519C324.851 85.4458 324.851 84.9357 324.851 83.9187V80.5681C324.851 79.5495 324.851 79.041 325.065 78.735C325.253 78.4678 325.541 78.288 325.864 78.241C326.234 78.186 326.688 78.4143 327.598 78.8694Z" fill="#0080FF"/>
<path d="M285.183 82.1992H328.907" stroke="#0080FF" stroke-width="1.64156"/>
<path d="M285.184 78.9774C286.972 78.9774 288.423 80.4284 288.423 82.2162C288.423 84.0057 286.972 85.4551 285.184 85.4551C283.395 85.4551 281.945 84.0057 281.945 82.2162C281.945 80.4284 283.395 78.9774 285.184 78.9774Z" fill="#0080FF"/>
<path d="M463.235 44.998H345.017C338.309 44.998 332.872 50.4358 332.872 57.1437V107.346C332.872 114.054 338.309 119.491 345.017 119.491H463.235C469.943 119.491 475.381 114.054 475.381 107.346V57.1437C475.381 50.4358 469.943 44.998 463.235 44.998Z" fill="#0080FF" fill-opacity="0.06" stroke="#0080FF"/>
<mask id="mask3_539_1687" style="mask-type:luminance" maskUnits="userSpaceOnUse" x="351" y="63" width="106" height="38">
<path d="M456.759 63.6213H351.496V100.868H456.759V63.6213Z" fill="white"/>
</mask>
<g mask="url(#mask3_539_1687)">
<path d="M364.369 88.5549L368.626 76.4497H370.998L375.255 88.5549H373.208L372.282 85.8414H367.359L366.416 88.5549H364.369ZM367.911 84.1353H371.697L369.552 77.7984H370.088L367.911 84.1353ZM376.513 91.8047V79.7644H378.268V81.5843L378.056 81.1618C378.381 80.6635 378.815 80.2736 379.356 79.9919C379.898 79.7103 380.515 79.5695 381.209 79.5695C382.043 79.5695 382.79 79.7699 383.451 80.1707C384.122 80.5715 384.648 81.1185 385.027 81.8118C385.417 82.505 385.612 83.285 385.612 84.1516C385.612 85.0182 385.417 85.7981 385.027 86.4914C384.648 87.1846 384.128 87.7371 383.467 88.1487C382.806 88.5495 382.053 88.7499 381.209 88.7499C380.526 88.7499 379.903 88.6091 379.34 88.3275C378.788 88.0458 378.36 87.6396 378.056 87.1088L378.349 86.7676V91.8047H376.513ZM381.03 87.0438C381.55 87.0438 382.01 86.9192 382.411 86.6701C382.812 86.4209 383.126 86.0797 383.353 85.6464C383.592 85.2023 383.711 84.704 383.711 84.1516C383.711 83.5991 383.592 83.1062 383.353 82.6729C383.126 82.2396 382.812 81.8984 382.411 81.6493C382.01 81.4001 381.55 81.2756 381.03 81.2756C380.521 81.2756 380.06 81.4001 379.649 81.6493C379.248 81.8984 378.928 82.2396 378.69 82.6729C378.463 83.1062 378.349 83.5991 378.349 84.1516C378.349 84.704 378.463 85.2023 378.69 85.6464C378.928 86.0797 379.248 86.4209 379.649 86.6701C380.06 86.9192 380.521 87.0438 381.03 87.0438ZM387.398 91.8047V79.7644H389.153V81.5843L388.942 81.1618C389.267 80.6635 389.7 80.2736 390.242 79.9919C390.783 79.7103 391.401 79.5695 392.094 79.5695C392.928 79.5695 393.675 79.7699 394.336 80.1707C395.008 80.5715 395.533 81.1185 395.912 81.8118C396.302 82.505 396.497 83.285 396.497 84.1516C396.497 85.0182 396.302 85.7981 395.912 86.4914C395.533 87.1846 395.013 87.7371 394.352 88.1487C393.692 88.5495 392.939 88.7499 392.094 88.7499C391.411 88.7499 390.789 88.6091 390.225 88.3275C389.673 88.0458 389.245 87.6396 388.942 87.1088L389.234 86.7676V91.8047H387.398ZM391.915 87.0438C392.435 87.0438 392.895 86.9192 393.296 86.6701C393.697 86.4209 394.011 86.0797 394.239 85.6464C394.477 85.2023 394.596 84.704 394.596 84.1516C394.596 83.5991 394.477 83.1062 394.239 82.6729C394.011 82.2396 393.697 81.8984 393.296 81.6493C392.895 81.4001 392.435 81.2756 391.915 81.2756C391.406 81.2756 390.946 81.4001 390.534 81.6493C390.133 81.8984 389.814 82.2396 389.575 82.6729C389.348 83.1062 389.234 83.5991 389.234 84.1516C389.234 84.704 389.348 85.2023 389.575 85.6464C389.814 86.0797 390.133 86.4209 390.534 86.6701C390.946 86.9192 391.406 87.0438 391.915 87.0438ZM398.283 88.5549V79.7644H400.038V81.5355L399.876 81.2756C400.071 80.7014 400.385 80.2898 400.818 80.0407C401.251 79.7807 401.771 79.6507 402.378 79.6507H402.914V81.3243H402.15C401.544 81.3243 401.051 81.5139 400.672 81.893C400.304 82.2613 400.119 82.7921 400.119 83.4854V88.5549H398.283ZM408.411 88.7499C407.566 88.7499 406.792 88.5495 406.088 88.1487C405.394 87.7479 404.842 87.2009 404.43 86.5076C404.019 85.8143 403.813 85.029 403.813 84.1516C403.813 83.2633 404.019 82.478 404.43 81.7955C404.842 81.1022 405.394 80.5606 406.088 80.1707C406.781 79.7699 407.555 79.5695 408.411 79.5695C409.278 79.5695 410.052 79.7699 410.735 80.1707C411.428 80.5606 411.975 81.1022 412.376 81.7955C412.787 82.478 412.993 83.2633 412.993 84.1516C412.993 85.0398 412.787 85.8306 412.376 86.5239C411.964 87.2171 411.412 87.7642 410.718 88.165C410.025 88.5549 409.256 88.7499 408.411 88.7499ZM408.411 87.0438C408.931 87.0438 409.391 86.9192 409.792 86.6701C410.193 86.4209 410.507 86.0797 410.735 85.6464C410.973 85.2023 411.092 84.704 411.092 84.1516C411.092 83.5991 410.973 83.1062 410.735 82.6729C410.507 82.2396 410.193 81.8984 409.792 81.6493C409.391 81.4001 408.931 81.2756 408.411 81.2756C407.902 81.2756 407.442 81.4001 407.03 81.6493C406.629 81.8984 406.31 82.2396 406.071 82.6729C405.844 83.1062 405.73 83.5991 405.73 84.1516C405.73 84.704 405.844 85.2023 406.071 85.6464C406.31 86.0797 406.629 86.4209 407.03 86.6701C407.442 86.9192 407.902 87.0438 408.411 87.0438ZM417.178 88.5549L413.733 79.7644H415.732L418.381 86.9301H417.649L420.298 79.7644H422.313L418.852 88.5549H417.178ZM427.529 88.7499C426.652 88.7499 425.872 88.5495 425.189 88.1487C424.518 87.7371 423.992 87.1846 423.613 86.4914C423.234 85.7873 423.045 85.0019 423.045 84.1353C423.045 83.2471 423.234 82.4617 423.613 81.7793C424.003 81.0968 424.523 80.5606 425.173 80.1707C425.823 79.7699 426.56 79.5695 427.383 79.5695C428.044 79.5695 428.634 79.6832 429.154 79.9107C429.674 80.1382 430.113 80.4523 430.47 80.8531C430.828 81.2431 431.098 81.6926 431.283 82.2017C431.478 82.7109 431.575 83.2525 431.575 83.8266C431.575 83.9674 431.57 84.1136 431.559 84.2653C431.548 84.417 431.526 84.5578 431.494 84.6878H424.491V83.2254H430.454L429.576 83.8916C429.685 83.3608 429.647 82.8896 429.463 82.478C429.289 82.0555 429.019 81.7251 428.65 81.4868C428.293 81.2376 427.87 81.1131 427.383 81.1131C426.895 81.1131 426.462 81.2376 426.083 81.4868C425.704 81.7251 425.411 82.0717 425.206 82.5267C425 82.9708 424.919 83.5124 424.962 84.1516C424.908 84.7473 424.989 85.2673 425.206 85.7114C425.433 86.1556 425.747 86.5022 426.148 86.7513C426.56 87.0005 427.025 87.1251 427.545 87.1251C428.076 87.1251 428.526 87.0059 428.894 86.7676C429.273 86.5293 429.571 86.2205 429.788 85.8414L431.283 86.5726C431.109 86.9842 430.838 87.358 430.47 87.6938C430.113 88.0187 429.679 88.2787 429.17 88.4737C428.672 88.6578 428.125 88.7499 427.529 88.7499ZM437.429 88.7499C436.584 88.7499 435.826 88.5495 435.154 88.1487C434.494 87.7371 433.968 87.1846 433.578 86.4914C433.199 85.7981 433.01 85.0182 433.01 84.1516C433.01 83.285 433.204 82.505 433.594 81.8118C433.984 81.1185 434.51 80.5715 435.171 80.1707C435.831 79.7699 436.579 79.5695 437.413 79.5695C438.117 79.5695 438.74 79.7103 439.281 79.9919C439.823 80.2736 440.251 80.6635 440.565 81.1618L440.289 81.5843V76.2547H442.109V88.5549H440.37V86.7676L440.581 87.1088C440.278 87.6396 439.845 88.0458 439.281 88.3275C438.718 88.6091 438.101 88.7499 437.429 88.7499ZM437.608 87.0438C438.117 87.0438 438.572 86.9192 438.973 86.6701C439.384 86.4209 439.704 86.0797 439.931 85.6464C440.17 85.2023 440.289 84.704 440.289 84.1516C440.289 83.5991 440.17 83.1062 439.931 82.6729C439.704 82.2396 439.384 81.8984 438.973 81.6493C438.572 81.4001 438.117 81.2756 437.608 81.2756C437.099 81.2756 436.638 81.4001 436.227 81.6493C435.815 81.8984 435.496 82.2396 435.268 82.6729C435.041 83.1062 434.927 83.5991 434.927 84.1516C434.927 84.704 435.041 85.2023 435.268 85.6464C435.496 86.0797 435.81 86.4209 436.21 86.6701C436.622 86.9192 437.088 87.0438 437.608 87.0438Z" fill="#0080FF"/>
</g>
<path d="M214.384 124.273L212.71 120.927C212.162 119.834 211.889 119.288 211.519 119.114C211.197 118.961 210.823 118.961 210.501 119.114C210.132 119.288 209.858 119.834 209.311 120.927L207.636 124.273C207.181 125.183 206.953 125.637 207.008 126.007C207.056 126.33 207.234 126.618 207.502 126.806C207.808 127.02 208.318 127.02 209.335 127.02H212.685C213.704 127.02 214.213 127.02 214.519 126.806C214.786 126.618 214.966 126.33 215.012 126.007C215.068 125.637 214.839 125.183 214.384 124.273Z" fill="#0080FF"/>
<path d="M211.056 166.688V122.963" stroke="#0080FF" stroke-width="1.64156"/>
<path d="M214.276 166.687C214.276 164.898 212.825 163.448 211.038 163.448C209.248 163.448 207.799 164.898 207.799 166.687C207.799 168.476 209.248 169.926 211.038 169.926C212.825 169.926 214.276 168.476 214.276 166.687Z" fill="#0080FF"/>
<path d="M269.363 44.998H151.146C144.438 44.998 139 50.4358 139 57.1437V107.346C139 114.054 144.438 119.491 151.146 119.491H269.363C276.071 119.491 281.509 114.054 281.509 107.346V57.1437C281.509 50.4358 276.071 44.998 269.363 44.998Z" fill="white"/>
<mask id="mask4_539_1687" style="mask-type:luminance" maskUnits="userSpaceOnUse" x="157" y="63" width="106" height="38">
<path d="M262.887 63.6211H157.625V100.868H262.887V63.6211Z" fill="white"/>
</mask>
<g mask="url(#mask4_539_1687)">
<path d="M180.468 88.5547L176.179 76.4495H178.242L181.752 86.7836H181.346L184.839 76.4495H186.903L182.613 88.5547H180.468ZM191.466 88.7497C190.589 88.7497 189.809 88.5493 189.126 88.1485C188.455 87.7368 187.929 87.1844 187.55 86.4911C187.171 85.787 186.981 85.0017 186.981 84.1351C186.981 83.2468 187.171 82.4615 187.55 81.779C187.94 81.0966 188.46 80.5604 189.11 80.1704C189.76 79.7696 190.497 79.5692 191.32 79.5692C191.981 79.5692 192.571 79.6829 193.091 79.9104C193.611 80.1379 194.05 80.452 194.407 80.8528C194.764 81.2428 195.035 81.6924 195.219 82.2015C195.414 82.7106 195.512 83.2522 195.512 83.8263C195.512 83.9672 195.506 84.1134 195.496 84.2651C195.485 84.4167 195.463 84.5575 195.431 84.6875H188.428V83.2251H194.391L193.513 83.8913C193.622 83.3606 193.584 82.8893 193.4 82.4777C193.226 82.0552 192.955 81.7249 192.587 81.4865C192.23 81.2374 191.807 81.1128 191.32 81.1128C190.832 81.1128 190.399 81.2374 190.02 81.4865C189.641 81.7249 189.348 82.0715 189.142 82.5265C188.937 82.9706 188.855 83.5122 188.899 84.1513C188.845 84.7471 188.926 85.2671 189.142 85.7112C189.37 86.1553 189.684 86.5019 190.085 86.7511C190.497 87.0002 190.962 87.1248 191.482 87.1248C192.013 87.1248 192.463 87.0057 192.831 86.7673C193.21 86.529 193.508 86.2203 193.725 85.8412L195.219 86.5724C195.046 86.984 194.775 87.3577 194.407 87.6935C194.05 88.0185 193.616 88.2785 193.107 88.4734C192.609 88.6576 192.062 88.7497 191.466 88.7497ZM197.304 88.5547V79.7642H199.059V81.5353L198.896 81.2753C199.091 80.7012 199.405 80.2896 199.839 80.0404C200.272 79.7804 200.792 79.6505 201.398 79.6505H201.935V81.3241H201.171C200.564 81.3241 200.072 81.5136 199.692 81.8928C199.324 82.2611 199.14 82.7918 199.14 83.4851V88.5547H197.304ZM206.44 88.7497C205.541 88.7497 204.751 88.5276 204.068 88.0835C203.397 87.6393 202.925 87.0436 202.655 86.2961L204.068 85.6299C204.307 86.1282 204.631 86.5236 205.043 86.8161C205.466 87.1086 205.931 87.2548 206.44 87.2548C206.874 87.2548 207.226 87.1573 207.497 86.9623C207.767 86.7673 207.903 86.5019 207.903 86.1661C207.903 85.9495 207.843 85.7762 207.724 85.6462C207.605 85.5054 207.453 85.3916 207.269 85.305C207.096 85.2183 206.917 85.1533 206.733 85.11L205.352 84.72C204.594 84.5034 204.025 84.1784 203.646 83.7451C203.277 83.301 203.093 82.7864 203.093 82.2015C203.093 81.6707 203.229 81.2103 203.499 80.8204C203.77 80.4196 204.144 80.1108 204.621 79.8942C205.097 79.6775 205.633 79.5692 206.229 79.5692C207.031 79.5692 207.746 79.7696 208.374 80.1704C209.002 80.5604 209.446 81.1074 209.706 81.8115L208.293 82.4777C208.12 82.0552 207.843 81.7194 207.464 81.4703C207.096 81.2212 206.679 81.0966 206.213 81.0966C205.812 81.0966 205.493 81.1941 205.254 81.3891C205.016 81.5732 204.897 81.8169 204.897 82.1202C204.897 82.3261 204.951 82.4994 205.059 82.6402C205.168 82.7702 205.309 82.8785 205.482 82.9652C205.655 83.041 205.834 83.106 206.018 83.1602L207.448 83.5826C208.174 83.7884 208.732 84.1134 209.122 84.5575C209.511 84.9908 209.706 85.5108 209.706 86.1174C209.706 86.6374 209.566 87.0977 209.284 87.4985C209.013 87.8885 208.634 88.1972 208.147 88.4247C207.659 88.6413 207.09 88.7497 206.44 88.7497ZM211.505 88.5547V79.7642H213.342V88.5547H211.505ZM211.505 78.5618V76.4495H213.342V78.5618H211.505ZM219.729 88.7497C218.884 88.7497 218.11 88.5493 217.406 88.1485C216.712 87.7477 216.16 87.2006 215.748 86.5074C215.337 85.8141 215.131 85.0287 215.131 84.1513C215.131 83.2631 215.337 82.4777 215.748 81.7953C216.16 81.102 216.712 80.5604 217.406 80.1704C218.099 79.7696 218.873 79.5692 219.729 79.5692C220.596 79.5692 221.37 79.7696 222.053 80.1704C222.746 80.5604 223.293 81.102 223.694 81.7953C224.105 82.4777 224.311 83.2631 224.311 84.1513C224.311 85.0396 224.105 85.8303 223.694 86.5236C223.282 87.2169 222.73 87.7639 222.036 88.1647C221.343 88.5547 220.574 88.7497 219.729 88.7497ZM219.729 87.0436C220.249 87.0436 220.71 86.919 221.11 86.6698C221.511 86.4207 221.825 86.0795 222.053 85.6462C222.291 85.2021 222.41 84.7038 222.41 84.1513C222.41 83.5989 222.291 83.106 222.053 82.6727C221.825 82.2394 221.511 81.8982 221.11 81.649C220.71 81.3999 220.249 81.2753 219.729 81.2753C219.22 81.2753 218.76 81.3999 218.348 81.649C217.947 81.8982 217.628 82.2394 217.389 82.6727C217.162 83.106 217.048 83.5989 217.048 84.1513C217.048 84.7038 217.162 85.2021 217.389 85.6462C217.628 86.0795 217.947 86.4207 218.348 86.6698C218.76 86.919 219.22 87.0436 219.729 87.0436ZM226.104 88.5547V79.7642H227.859V81.4865L227.647 81.2591C227.864 80.7066 228.211 80.2896 228.687 80.0079C229.164 79.7154 229.716 79.5692 230.345 79.5692C230.995 79.5692 231.569 79.71 232.067 79.9917C232.565 80.2733 232.955 80.6633 233.237 81.1616C233.519 81.6599 233.659 82.234 233.659 82.8839V88.5547H231.84V83.3714C231.84 82.9273 231.758 82.5535 231.596 82.2502C231.433 81.9361 231.2 81.6978 230.897 81.5353C230.605 81.362 230.269 81.2753 229.89 81.2753C229.511 81.2753 229.169 81.362 228.866 81.5353C228.574 81.6978 228.346 81.9361 228.184 82.2502C228.021 82.5644 227.94 82.9381 227.94 83.3714V88.5547H226.104ZM238.205 88.5547V87.1736L241.52 83.6314C242.17 82.9381 242.679 82.3802 243.047 81.9578C243.426 81.5245 243.697 81.1453 243.859 80.8204C244.033 80.4954 244.119 80.1542 244.119 79.7967C244.119 79.2117 243.941 78.7622 243.583 78.4481C243.226 78.1231 242.765 77.9606 242.202 77.9606C241.617 77.9606 241.113 78.1285 240.691 78.4643C240.268 78.7893 239.976 79.2659 239.813 79.8942L238.124 79.4067C238.254 78.7676 238.514 78.2152 238.904 77.7494C239.294 77.2727 239.77 76.9044 240.333 76.6445C240.908 76.3845 241.525 76.2545 242.186 76.2545C242.955 76.2545 243.626 76.4007 244.201 76.6932C244.775 76.9748 245.219 77.3702 245.533 77.8794C245.858 78.3885 246.02 78.9788 246.02 79.6505C246.02 80.0946 245.934 80.5279 245.76 80.9503C245.598 81.362 245.343 81.8007 244.997 82.2665C244.65 82.7214 244.206 83.236 243.664 83.8101L240.74 86.9298H246.248V88.5547H238.205Z" fill="#0080FF"/>
</g>
<path d="M327.598 200.635L330.944 202.309C332.037 202.857 332.583 203.131 332.757 203.5C332.91 203.822 332.91 204.196 332.757 204.518C332.583 204.888 332.037 205.161 330.944 205.709L327.598 207.383C326.688 207.838 326.234 208.067 325.864 208.011C325.541 207.963 325.253 207.785 325.065 207.518C324.851 207.211 324.851 206.701 324.851 205.684V202.334C324.851 201.315 324.851 200.807 325.065 200.501C325.253 200.233 325.541 200.054 325.864 200.007C326.234 199.952 326.688 200.18 327.598 200.635Z" fill="#0080FF"/>
<path d="M285.183 203.965H328.907" stroke="#0080FF" stroke-width="1.64156"/>
<path d="M285.184 200.743C286.972 200.743 288.423 202.194 288.423 203.982C288.423 205.771 286.972 207.221 285.184 207.221C283.395 207.221 281.945 205.771 281.945 203.982C281.945 202.194 283.395 200.743 285.184 200.743Z" fill="#0080FF"/>
</g>
<defs>
<clipPath id="clip0_539_1687">
<rect width="422" height="380" fill="white"/>
</clipPath>
</defs>
</svg>
