<svg width="400" height="184" viewBox="0 0 400 184" fill="none" xmlns="http://www.w3.org/2000/svg">
<g clip-path="url(#clip0_539_1964)">
<rect width="400" height="184" fill="#E8EDF2"/>
<rect width="400" height="184" fill="#E3EAFC"/>
<rect x="35" y="14.998" width="331" height="331" rx="165.5" stroke="white" stroke-width="2" stroke-dasharray="4 4"/>
<rect x="70" y="44.998" width="261" height="261" rx="130.5" stroke="white" stroke-opacity="0.45" stroke-width="2" stroke-dasharray="3.53 3.53"/>
<rect x="88" y="79.998" width="226" height="226" rx="113" stroke="white" stroke-opacity="0.24" stroke-width="2" stroke-dasharray="3.53 3.53"/>
<path d="M47.7167 136.23C46.3041 136.228 44.9501 135.666 43.9515 134.667C42.953 133.668 42.3914 132.314 42.39 130.901V123.508H18.5908C17.6777 123.507 16.7734 123.687 15.9298 124.036C15.0861 124.385 14.3194 124.897 13.6737 125.543C13.0279 126.188 12.5156 126.955 12.1661 127.798C11.8166 128.642 11.6367 129.546 11.6367 130.459V172.364C11.6367 173.277 11.8166 174.182 12.1661 175.025C12.5156 175.869 13.0279 176.635 13.6737 177.281C14.3194 177.926 15.0861 178.438 15.9298 178.787C16.7734 179.137 17.6777 179.316 18.5908 179.316H47.1613C49.0049 179.316 50.773 178.583 52.0767 177.28C53.3803 175.976 54.1127 174.208 54.1127 172.364V136.23H47.7167Z" fill="white"/>
<path d="M54.1122 136.23H47.7162C46.3036 136.228 44.9496 135.666 43.951 134.667C42.9525 133.668 42.3909 132.314 42.3895 130.901V123.508L54.1122 136.23Z" fill="#0080FF"/>
<path d="M59.1549 167.581H26.8542C24.563 167.581 22.7056 169.438 22.7056 171.73V181.36C22.7056 183.651 24.563 185.509 26.8542 185.509H59.1549C61.4461 185.509 63.3036 183.651 63.3036 181.36V171.73C63.3036 169.438 61.4461 167.581 59.1549 167.581Z" fill="#0080FF"/>
<path d="M32.7958 178.63V180.508H30.8506V178.63H32.7958Z" fill="white"/>
<path d="M37.7632 180.506L36.0815 177.572H35.6527V180.506H33.7747V172.739H36.983C37.5172 172.724 38.0476 172.833 38.533 173.056C38.9314 173.246 39.2641 173.55 39.4888 173.929C39.705 174.318 39.8147 174.756 39.8065 175.2C39.8216 175.72 39.6564 176.228 39.3389 176.639C38.993 177.057 38.5143 177.343 37.9827 177.45L39.8298 180.506H37.7632ZM35.6527 176.288H36.8177C37.1153 176.31 37.4102 176.218 37.6418 176.03C37.7335 175.933 37.8039 175.817 37.8484 175.691C37.8929 175.566 37.9105 175.432 37.9001 175.299C37.9087 175.166 37.8902 175.034 37.8458 174.909C37.8013 174.784 37.7319 174.67 37.6418 174.573C37.4134 174.382 37.1192 174.29 36.8229 174.314H35.6578L35.6527 176.288Z" fill="white"/>
<path d="M45.5752 179.088H42.6638L42.1782 180.506H40.202L43.0436 172.793H45.2057L48.0473 180.506H46.0479L45.5752 179.088ZM45.0921 177.66L44.1234 174.803L43.1469 177.66H45.0921Z" fill="white"/>
<path d="M52.772 180.506L51.0903 177.572H50.6615V180.506H48.7834V172.739H51.9918C52.526 172.724 53.0564 172.833 53.5418 173.056C53.9402 173.246 54.273 173.55 54.4976 173.929C54.7139 174.318 54.8235 174.756 54.8153 175.2C54.8304 175.72 54.6652 176.228 54.3477 176.639C54.0018 177.057 53.5231 177.343 52.9915 177.45L54.8385 180.506H52.772ZM50.6615 176.288H51.8265C52.124 176.31 52.4187 176.217 52.6506 176.03C52.7423 175.933 52.8127 175.817 52.8572 175.691C52.9017 175.566 52.9193 175.432 52.9089 175.299C52.9175 175.166 52.899 175.034 52.8546 174.909C52.8101 174.784 52.7407 174.67 52.6506 174.573C52.4221 174.382 52.128 174.29 51.8317 174.314H50.6666L50.6615 176.288Z" fill="white"/>
<path d="M36.1694 162.473H20.0191C19.7626 162.472 19.5169 162.37 19.3358 162.188C19.1547 162.007 19.053 161.761 19.053 161.504C19.053 161.248 19.1548 161.002 19.336 160.821C19.5171 160.64 19.7629 160.538 20.0191 160.538H36.1694C36.2965 160.538 36.4224 160.563 36.54 160.611C36.6575 160.659 36.7643 160.73 36.8543 160.82C36.9442 160.91 37.0156 161.017 37.0644 161.134C37.1131 161.251 37.1382 161.377 37.1382 161.504C37.1382 161.761 37.0361 162.008 36.8544 162.189C36.6727 162.371 36.4264 162.473 36.1694 162.473Z" fill="#0080FF"/>
<path d="M36.1696 156.768H20.0192C19.7628 156.767 19.517 156.665 19.3359 156.483C19.1548 156.302 19.0531 156.056 19.0531 155.799C19.0538 155.543 19.1558 155.298 19.3368 155.117C19.5179 154.936 19.7632 154.834 20.0192 154.833H36.1696C36.426 154.833 36.6721 154.935 36.8537 155.116C37.0352 155.297 37.1376 155.543 37.1383 155.799C37.1383 156.056 37.0362 156.302 36.8545 156.484C36.6729 156.666 36.4265 156.768 36.1696 156.768Z" fill="#0080FF"/>
<path d="M36.1694 151.061H20.0191C19.7629 151.061 19.5171 150.959 19.336 150.778C19.1548 150.597 19.053 150.351 19.053 150.095C19.053 149.838 19.1547 149.592 19.3358 149.411C19.5169 149.229 19.7626 149.127 20.0191 149.126H36.1694C36.4264 149.126 36.6727 149.228 36.8544 149.41C37.0361 149.591 37.1382 149.838 37.1382 150.095C37.1382 150.222 37.1131 150.348 37.0644 150.465C37.0156 150.582 36.9442 150.689 36.8543 150.779C36.7643 150.868 36.6575 150.94 36.54 150.988C36.4224 151.036 36.2965 151.061 36.1694 151.061V151.061Z" fill="#0080FF"/>
<path d="M36.1696 145.354H20.0192C19.763 145.354 19.5173 145.252 19.3361 145.071C19.1549 144.89 19.0531 144.644 19.0531 144.388C19.0531 144.132 19.1549 143.886 19.3361 143.705C19.5173 143.524 19.763 143.422 20.0192 143.422H36.1696C36.2967 143.422 36.4226 143.446 36.5401 143.495C36.6576 143.543 36.7644 143.614 36.8544 143.704C36.9444 143.794 37.0158 143.9 37.0645 144.018C37.1132 144.135 37.1383 144.261 37.1383 144.388C37.1383 144.515 37.1132 144.641 37.0645 144.758C37.0158 144.876 36.9444 144.982 36.8544 145.072C36.7644 145.162 36.6576 145.233 36.5401 145.281C36.4226 145.33 36.2967 145.354 36.1696 145.354V145.354Z" fill="#0080FF"/>
<path d="M43.4127 162.906C42.5435 162.905 41.71 162.56 41.0954 161.945C40.4808 161.33 40.1352 160.497 40.1345 159.628V156.35H46.6882V159.628C46.6875 160.496 46.3423 161.329 45.7282 161.944C45.1141 162.559 44.2814 162.904 43.4127 162.906V162.906ZM41.811 158.026V159.628C41.8117 160.052 41.9807 160.459 42.2809 160.759C42.5811 161.06 42.9881 161.229 43.4127 161.229C43.8372 161.229 44.2442 161.06 44.5444 160.759C44.8446 160.459 45.0136 160.052 45.0142 159.628V158.026H41.811Z" fill="#0080FF"/>
<path d="M40.1349 156.354H43.4208V153.068H40.1349V156.354Z" fill="#0080FF"/>
<path d="M43.4099 153.069H46.6958V149.783H43.4099V153.069Z" fill="#0080FF"/>
<path d="M40.135 149.786H43.4209V146.5H40.135V149.786Z" fill="#0080FF"/>
<path d="M43.4099 146.503H46.6958V143.217H43.4099V146.503Z" fill="#0080FF"/>
<path d="M89.7903 43.7912C88.1041 43.7896 86.4875 43.1188 85.2954 41.9263C84.1034 40.7337 83.4335 39.1167 83.4326 37.4306V28.6064H55.024C52.8235 28.6064 50.7132 29.4806 49.1572 31.0365C47.6012 32.5925 46.7271 34.7029 46.7271 36.9034V86.9191C46.7271 89.1196 47.6012 91.2299 49.1572 92.7859C50.7132 94.3419 52.8235 95.2161 55.024 95.2161H89.1242C91.3247 95.2161 93.4351 94.3419 94.9911 92.7859C96.547 91.2299 97.4212 89.1196 97.4212 86.9191V43.7912H89.7903Z" fill="white"/>
<path d="M97.4212 43.7912H89.7902C88.1041 43.7896 86.4874 43.1188 85.2954 41.9263C84.1034 40.7337 83.4334 39.1167 83.4326 37.4306V28.6064L97.4212 43.7912Z" fill="#0080FF"/>
<path d="M103.44 81.21H64.8872C62.1525 81.21 59.9355 83.4269 59.9355 86.1616V97.6558C59.9355 100.391 62.1525 102.607 64.8872 102.607H103.44C106.174 102.607 108.391 100.391 108.391 97.6558V86.1616C108.391 83.4269 106.174 81.21 103.44 81.21Z" fill="#0080FF"/>
<path d="M72.5306 94.3965V96.638H70.209V94.3965H72.5306Z" fill="white"/>
<path d="M75.9405 93.3856V96.6384H73.6959V87.3672H77.331C78.4317 87.3672 79.2704 87.6385 79.847 88.1873C80.1389 88.4734 80.3669 88.818 80.5162 89.1984C80.6656 89.5789 80.7327 89.9867 80.7133 90.3949C80.7217 90.9336 80.5889 91.4652 80.3279 91.9365C80.0584 92.3972 79.6581 92.7674 79.1779 93.0002C78.6002 93.2725 77.9663 93.4045 77.3279 93.3856H75.9405ZM78.4318 90.3949C78.4318 89.583 77.9816 89.1719 77.0813 89.1616H75.9405V91.5727H77.0813C77.9816 91.583 78.4318 91.1904 78.4318 90.3949V90.3949Z" fill="white"/>
<path d="M88.1038 95.3803C87.8365 95.8062 87.4538 96.1473 87 96.3639C86.4489 96.6224 85.8449 96.748 85.2364 96.7308C84.3198 96.7671 83.4168 96.4994 82.6681 95.9692C82.3359 95.7212 82.064 95.4013 81.8729 95.0335C81.6818 94.6656 81.5763 94.2593 81.5643 93.8449H83.9538C83.9687 94.1577 84.1021 94.4531 84.3268 94.6712C84.5488 94.8782 84.8437 94.989 85.147 94.9795C85.3964 94.9925 85.641 94.9072 85.8284 94.7421C85.9106 94.6624 85.9753 94.5663 86.0183 94.4601C86.0613 94.354 86.0817 94.24 86.0781 94.1255C86.0814 94.0168 86.0626 93.9086 86.0228 93.8074C85.9831 93.7062 85.9232 93.614 85.8469 93.5366C85.6832 93.372 85.4895 93.2402 85.2765 93.1481C85.0483 93.0494 84.7338 92.9292 84.333 92.7874C83.8416 92.6254 83.3616 92.4307 82.8963 92.2046C82.5144 92.0067 82.1864 91.7189 81.9404 91.366C81.6564 90.9378 81.516 90.4302 81.5397 89.9169C81.5267 89.4079 81.6733 88.9077 81.9589 88.4863C82.2513 88.0756 82.6529 87.7551 83.1182 87.5613C83.6576 87.3439 84.2357 87.239 84.8171 87.253C85.6995 87.2037 86.5717 87.4631 87.2836 87.9868C87.5862 88.2334 87.834 88.5403 88.0113 88.8881C88.1886 89.2358 88.2916 89.6166 88.3135 90.0063H85.8869C85.8591 89.7331 85.7408 89.4771 85.5509 89.2787C85.4542 89.187 85.3397 89.1159 85.2146 89.0698C85.0895 89.0237 84.9564 89.0035 84.8233 89.0105C84.5928 88.9987 84.3662 89.0734 84.1881 89.2201C84.1038 89.298 84.0382 89.3939 83.996 89.5006C83.9538 89.6074 83.9362 89.7223 83.9445 89.8367C83.9411 90.0437 84.0186 90.244 84.1604 90.3948C84.3158 90.5541 84.5013 90.6809 84.7061 90.7679C84.925 90.8634 85.2395 90.9868 85.6495 91.1348C86.1493 91.2963 86.6359 91.4963 87.1048 91.7329C87.492 91.9374 87.825 92.2312 88.0761 92.5901C88.3631 93.0241 88.5056 93.5378 88.4831 94.0577C88.4795 94.5249 88.3483 94.9822 88.1038 95.3803V95.3803Z" fill="white"/>
<path d="M97.4676 94.4021C97.0812 95.1031 96.4968 95.6746 95.7873 96.0454C94.9925 96.4557 94.1071 96.6593 93.2128 96.6374H89.7103V87.3662H93.2128C94.1074 87.3425 94.994 87.5406 95.7935 87.9427C96.4994 88.3076 97.0819 88.8728 97.4676 89.5676C97.8664 90.3087 98.0671 91.1403 98.0503 91.9817C98.0662 92.8251 97.8656 93.6584 97.4676 94.4021V94.4021ZM95.0535 93.9365C95.3046 93.6796 95.4991 93.3729 95.6244 93.0362C95.7497 92.6995 95.8031 92.3403 95.7811 91.9817C95.8031 91.6232 95.7497 91.264 95.6244 90.9273C95.4991 90.5906 95.3046 90.2839 95.0535 90.027C94.4919 89.5366 93.7597 89.2874 93.0155 89.3332H91.9518V94.6302H93.0155C93.7638 94.6794 94.5011 94.4299 95.0658 93.9365H95.0535Z" fill="white"/>
<path d="M62.1587 68.9378C62.1587 68.9378 60.1515 64.6737 62.7507 60.5114C62.7507 60.5114 63.5184 62.7498 64.1504 62.6049C64.1504 62.6049 63.3457 59.3953 63.9377 58.4457C63.9377 58.4457 66.5029 54.7674 69.3333 52.7787C69.3333 52.7787 69.4258 54.9647 70.0918 55.1435C70.0918 55.1435 69.9869 53.7931 70.9273 51.752C70.9273 51.752 75.4905 48.2371 83.106 48.5578C83.106 48.5578 80.0999 53.2134 78.4103 56.3521C77.517 58.0469 76.5351 59.6936 75.4689 61.2853C75.4689 61.2853 73.2305 62.5925 71.769 62.4692C71.769 62.4692 73.0023 63.4374 74.3405 62.9595C74.3405 62.9595 70.9335 69.1259 64.3231 69.9028C64.3231 69.9028 63.0898 72.4403 62.8432 74.6633C62.8432 74.6633 61.6099 75.4094 61.0303 75.28C61.0303 75.28 64.2276 62.9995 75.1267 54.1014C75.1421 54.1014 68.8585 55.7633 62.1587 68.9378Z" fill="#0080FF"/>
<path d="M179.737 21.8671C178.256 21.8664 176.836 21.2778 175.789 20.2306C174.741 19.1834 174.153 17.7634 174.152 16.2825V8.53125H149.198C148.24 8.53125 147.292 8.71984 146.408 9.08627C145.524 9.4527 144.72 9.98979 144.043 10.6668C143.366 11.3439 142.83 12.1477 142.463 13.0322C142.097 13.9167 141.909 14.8648 141.909 15.8221V59.7539C141.909 60.7113 142.097 61.6592 142.463 62.5438C142.83 63.4283 143.366 64.2321 144.043 64.9092C144.72 65.5862 145.524 66.1233 146.408 66.4897C147.292 66.8562 148.24 67.0448 149.198 67.0448H179.152C180.109 67.0448 181.057 66.8562 181.941 66.4897C182.826 66.1233 183.629 65.5862 184.306 64.9092C184.983 64.2321 185.52 63.4283 185.886 62.5438C186.252 61.6592 186.44 60.7113 186.44 59.7539V21.8698L179.737 21.8671Z" fill="white"/>
<path d="M186.44 21.8671H179.737C178.256 21.8664 176.836 21.2778 175.789 20.2306C174.741 19.1834 174.153 17.7634 174.152 16.2825V8.53125L186.44 21.8671Z" fill="#0080FF"/>
<path d="M191.726 54.7354H157.861C155.459 54.7354 153.511 56.6827 153.511 59.0849V69.1816C153.511 71.5838 155.459 73.5312 157.861 73.5312H191.726C194.128 73.5312 196.076 71.5838 196.076 69.1816V59.0849C196.076 56.6827 194.128 54.7354 191.726 54.7354Z" fill="#0080FF"/>
<path d="M164.719 66.3203V68.292H162.68V66.3203H164.719Z" fill="white"/>
<path d="M170.772 60.1465V65.7094C170.772 66.5634 170.54 67.2198 170.076 67.6784C169.817 67.9172 169.512 68.1014 169.181 68.2201C168.849 68.3388 168.497 68.3894 168.145 68.369C167.76 68.3896 167.374 68.3338 167.011 68.2045C166.647 68.0753 166.313 67.8753 166.027 67.6161C165.505 67.1123 165.243 66.3901 165.242 65.4494H167.189C167.189 66.2105 167.479 66.5896 168.053 66.5896C168.554 66.5896 168.803 66.2971 168.803 65.7148V60.1519L170.772 60.1465Z" fill="white"/>
<path d="M174.039 65.4332V68.2905H172.07V60.1465H175.26C176.226 60.1465 176.963 60.3857 177.47 60.8642C177.727 61.1158 177.927 61.4189 178.058 61.7536C178.19 62.0883 178.248 62.447 178.231 62.8061C178.238 63.2793 178.122 63.7462 177.892 64.1603C177.657 64.564 177.306 64.8883 176.885 65.0919C176.378 65.3326 175.821 65.4495 175.26 65.4332H174.039ZM176.227 62.8061C176.227 62.0839 175.831 61.7228 175.041 61.7228H174.039V63.8434H175.041C175.831 63.8506 176.227 63.5048 176.227 62.8061V62.8061Z" fill="white"/>
<path d="M185.535 60.8039C186.191 61.297 186.632 62.0232 186.767 62.8324H184.682C184.541 62.549 184.318 62.3142 184.043 62.1581C183.733 61.9738 183.377 61.88 183.016 61.8872C182.736 61.8758 182.457 61.9262 182.199 62.0348C181.94 62.1434 181.709 62.3075 181.521 62.5155C181.124 62.9893 180.922 63.5963 180.955 64.2137C180.955 64.9883 181.153 65.5832 181.548 65.9985C181.771 66.2141 182.036 66.3809 182.326 66.4881C182.617 66.5954 182.927 66.6408 183.236 66.6214C183.678 66.6294 184.11 66.4935 184.468 66.2341C184.833 65.9612 185.097 65.5743 185.218 65.1345H182.729V63.7181H186.865V65.6653C186.707 66.1501 186.457 66.5998 186.128 66.9897C185.772 67.4099 185.33 67.7481 184.831 67.981C184.267 68.2416 183.651 68.3712 183.03 68.3601C182.274 68.38 181.527 68.1996 180.863 67.8374C180.256 67.496 179.762 66.985 179.441 66.3668C179.097 65.6975 178.924 64.9528 178.94 64.2001C178.927 63.4521 179.099 62.7123 179.441 62.047C179.761 61.4303 180.253 60.9195 180.858 60.5764C181.512 60.217 182.249 60.0367 182.995 60.0537C183.901 60.0142 184.795 60.2782 185.535 60.8039V60.8039Z" fill="white"/>
<path d="M170.157 48.185H158.195C157.024 48.1836 155.901 47.7177 155.073 46.8896C154.245 46.0615 153.779 44.9388 153.777 43.7677V31.805C153.779 30.6339 154.245 29.5112 155.073 28.6831C155.901 27.855 157.024 27.3891 158.195 27.3877H170.157C171.328 27.3891 172.451 27.8551 173.278 28.6832C174.106 29.5114 174.571 30.6342 174.572 31.805V43.7677C174.571 44.9385 174.106 46.0613 173.278 46.8894C172.451 47.7176 171.328 48.1836 170.157 48.185ZM158.195 29.3404C157.541 29.3411 156.915 29.601 156.453 30.0631C155.991 30.5251 155.731 31.1516 155.73 31.805V43.7677C155.731 44.4211 155.991 45.0476 156.453 45.5096C156.915 45.9717 157.541 46.2315 158.195 46.2323H170.157C170.811 46.2315 171.437 45.9716 171.898 45.5095C172.36 45.0473 172.619 44.4209 172.619 43.7677V31.805C172.619 31.1518 172.36 30.5254 171.898 30.0632C171.437 29.6011 170.811 29.3411 170.157 29.3404H158.195Z" fill="#0080FF"/>
<path d="M173.597 41.491V43.766C173.596 44.678 173.234 45.5525 172.589 46.1974C171.944 46.8422 171.069 47.2049 170.157 47.2056H158.195C157.282 47.2056 156.408 46.8432 155.763 46.1981C155.118 45.5531 154.755 44.6782 154.755 43.766V39.9473C156.67 39.5356 159.587 39.4056 163.127 40.8193L165.32 38.7285L166.815 42.5202C166.815 42.5202 167.216 41.1254 168.511 41.3231C169.805 41.5208 171.902 42.2222 172.798 41.6237C173.04 41.4844 173.323 41.4372 173.597 41.491V41.491Z" fill="#0080FF"/>
<path d="M169.407 34.2475C170.141 34.2475 170.737 33.6521 170.737 32.9177C170.737 32.1833 170.141 31.5879 169.407 31.5879C168.672 31.5879 168.077 32.1833 168.077 32.9177C168.077 33.6521 168.672 34.2475 169.407 34.2475Z" fill="#0080FF"/>
<path d="M279.483 28.6417C277.706 28.6399 276.003 27.9333 274.746 26.6769C273.49 25.4205 272.783 23.717 272.782 21.9402V12.6387H242.839C240.519 12.6387 238.294 13.5604 236.653 15.2012C235.012 16.8419 234.09 19.0673 234.09 21.3877V74.1059C234.09 76.4263 235.012 78.6516 236.653 80.2924C238.294 81.9331 240.519 82.8549 242.839 82.8549H278.784C279.933 82.8549 281.071 82.6286 282.132 82.1888C283.193 81.7491 284.158 81.1046 284.97 80.2922C285.782 79.4797 286.426 78.5152 286.865 77.4537C287.305 76.3923 287.531 75.2547 287.53 74.1059V28.6449L279.483 28.6417Z" fill="white"/>
<path d="M287.531 28.6417H279.484C277.707 28.6399 276.003 27.9333 274.747 26.6769C273.491 25.4205 272.784 23.717 272.782 21.9402V12.6387L287.531 28.6417Z" fill="#0080FF"/>
<path d="M293.874 68.083H253.236C250.354 68.083 248.017 70.4199 248.017 73.3025V85.4185C248.017 88.3011 250.354 90.638 253.236 90.638H293.874C296.757 90.638 299.094 88.3011 299.094 85.4185V73.3025C299.094 70.4199 296.757 68.083 293.874 68.083Z" fill="#0080FF"/>
<path d="M260.09 81.9854V84.3514H257.643V81.9854H260.09Z" fill="white"/>
<path d="M267.949 83.0199C267.67 83.4695 267.267 83.8294 266.789 84.0566C266.208 84.3303 265.57 84.4628 264.927 84.4434C263.961 84.4829 263.009 84.2018 262.22 83.6439C261.87 83.3825 261.584 83.0452 261.383 82.6574C261.182 82.2696 261.071 81.8412 261.059 81.4046H263.575C263.593 81.7338 263.733 82.0445 263.968 82.2756C264.202 82.4938 264.513 82.6106 264.833 82.6006C265.095 82.6155 265.353 82.5268 265.551 82.3536C265.638 82.2696 265.706 82.1683 265.751 82.0564C265.797 81.9445 265.818 81.8243 265.814 81.7036C265.818 81.5886 265.798 81.474 265.756 81.3668C265.714 81.2595 265.651 81.1619 265.57 81.0796C265.399 80.9055 265.195 80.7674 264.969 80.6734C264.729 80.5672 264.397 80.4405 263.975 80.2931C263.457 80.1224 262.951 79.9172 262.46 79.6789C262.057 79.4699 261.711 79.1653 261.453 78.7917C261.153 78.3404 261.005 77.8053 261.03 77.2641C261.017 76.7287 261.171 76.2024 261.472 75.7594C261.78 75.3248 262.205 74.9866 262.698 74.7844C263.265 74.5549 263.873 74.4443 264.485 74.4594C265.415 74.4074 266.334 74.6809 267.085 75.2329C267.398 75.4873 267.656 75.8031 267.843 76.1608C268.029 76.5185 268.141 76.9105 268.17 77.3129H265.613C265.583 77.0249 265.459 76.755 265.259 76.5459C265.157 76.4491 265.036 76.3741 264.904 76.3255C264.772 76.2769 264.632 76.2556 264.492 76.2631C264.249 76.2507 264.01 76.3295 263.822 76.4841C263.734 76.5667 263.665 76.6678 263.62 76.7802C263.576 76.8927 263.557 77.0135 263.565 77.1341C263.563 77.242 263.582 77.3493 263.622 77.4498C263.662 77.5502 263.721 77.6417 263.796 77.7191C263.958 77.8888 264.152 78.0237 264.368 78.1156C264.599 78.2164 264.93 78.3464 265.362 78.5024C265.889 78.6712 266.402 78.8809 266.896 79.1296C267.304 79.3474 267.655 79.6581 267.92 80.0364C268.223 80.4939 268.373 81.0354 268.349 81.5834C268.354 82.0904 268.216 82.5884 267.949 83.0199V83.0199Z" fill="white"/>
<path d="M271.482 74.5762L273.871 81.9277L276.263 74.5762H278.795L275.392 84.3489H272.337L268.95 74.5762H271.482Z" fill="white"/>
<path d="M287.307 75.365C288.095 75.9563 288.625 76.8278 288.789 77.7992H286.286C286.123 77.4504 285.858 77.1592 285.526 76.964C285.153 76.7428 284.727 76.6303 284.294 76.639C283.957 76.6252 283.622 76.6856 283.311 76.8159C283.001 76.9462 282.723 77.1432 282.497 77.3929C282.021 77.962 281.78 78.6903 281.821 79.4307C281.821 80.3602 282.058 81.0741 282.532 81.5724C282.799 81.8312 283.117 82.0314 283.466 82.1601C283.814 82.2888 284.186 82.3433 284.557 82.32C285.087 82.3296 285.606 82.1665 286.036 81.8552C286.474 81.5277 286.791 81.0634 286.936 80.5357H283.949V78.836H288.912V81.1727C288.721 81.7539 288.421 82.2933 288.028 82.762C287.601 83.2655 287.07 83.6712 286.471 83.9515C285.795 84.2642 285.056 84.4197 284.31 84.4064C283.403 84.4302 282.506 84.2138 281.71 83.7792C280.982 83.3696 280.389 82.7562 280.004 82.0144C279.59 81.2113 279.384 80.3176 279.403 79.4144C279.386 78.5167 279.593 77.629 280.004 76.8307C280.388 76.0906 280.979 75.4776 281.704 75.0659C282.488 74.6339 283.373 74.4175 284.268 74.4387C285.356 74.3995 286.426 74.7256 287.307 75.365Z" fill="white"/>
<path d="M274.076 54.1514H273.267C273.262 50.8715 271.957 47.7273 269.638 45.4084C267.318 43.0895 264.174 41.7853 260.894 41.7819C257.614 41.7853 254.47 43.0896 252.151 45.4086C249.832 47.7276 248.528 50.8718 248.524 54.1514H247.712C247.716 50.6569 249.106 47.3069 251.578 44.8362C254.049 42.3655 257.399 40.9761 260.894 40.9727C264.388 40.9761 267.739 42.3655 270.21 44.8362C272.681 47.3069 274.071 50.6569 274.076 54.1514V54.1514Z" fill="#0080FF"/>
<path d="M279.623 40.9727H242.164V41.7819H279.623V40.9727Z" fill="#0080FF"/>
<path d="M249.412 52.8574H246.821V55.4477H249.412V52.8574Z" fill="#0080FF"/>
<path d="M274.963 52.8574H272.372V55.4477H274.963V52.8574Z" fill="#0080FF"/>
<path d="M262.187 40.04H259.597V42.6303H262.187V40.04Z" fill="#0080FF"/>
<path d="M242.122 42.6335C242.838 42.6335 243.418 42.053 243.418 41.3368C243.418 40.6206 242.838 40.04 242.122 40.04C241.405 40.04 240.825 40.6206 240.825 41.3368C240.825 42.053 241.405 42.6335 242.122 42.6335Z" fill="#0080FF"/>
<path d="M279.5 42.6335C280.216 42.6335 280.797 42.053 280.797 41.3368C280.797 40.6206 280.216 40.04 279.5 40.04C278.784 40.04 278.203 40.6206 278.203 41.3368C278.203 42.053 278.784 42.6335 279.5 42.6335Z" fill="#0080FF"/>
<path d="M360.717 79.2302C359.304 79.2282 357.95 78.6659 356.951 77.6669C355.953 76.6679 355.391 75.3135 355.39 73.901V66.5078H331.588C329.744 66.5078 327.976 67.2402 326.673 68.5438C325.369 69.8475 324.637 71.6156 324.637 73.4593V115.364C324.639 117.206 325.373 118.972 326.676 120.273C327.98 121.575 329.746 122.306 331.588 122.306H360.161C362.003 122.306 363.77 121.575 365.073 120.273C366.376 118.972 367.11 117.206 367.113 115.364V79.2302H360.717Z" fill="white"/>
<path d="M367.112 79.2302H360.716C359.304 79.2282 357.95 78.6659 356.951 77.6669C355.953 76.6679 355.391 75.3135 355.39 73.901V66.5078L367.112 79.2302Z" fill="#0080FF"/>
<path d="M372.152 110.581H339.852C337.561 110.581 335.703 112.438 335.703 114.73V124.36C335.703 126.651 337.561 128.509 339.852 128.509H372.152C374.444 128.509 376.301 126.651 376.301 124.36V114.73C376.301 112.438 374.444 110.581 372.152 110.581Z" fill="#0080FF"/>
<path d="M348.493 121.63V123.508H346.548V121.63H348.493Z" fill="white"/>
<path d="M351.414 121.991H354.842V123.507H349.327V122.079L352.701 117.245H349.371V115.739H354.822V117.168L351.414 121.991Z" fill="white"/>
<path d="M357.875 115.739V123.507H356.005V115.739H357.875Z" fill="white"/>
<path d="M361.05 120.782V123.507H359.172V115.739H362.204C363.127 115.739 363.832 115.967 364.315 116.426C364.56 116.666 364.751 116.955 364.876 117.274C365.001 117.592 365.057 117.934 365.041 118.276C365.049 118.728 364.937 119.174 364.715 119.568C364.49 119.953 364.156 120.263 363.754 120.459C363.27 120.686 362.739 120.797 362.204 120.782H361.05ZM363.137 118.276C363.137 117.596 362.76 117.251 362.006 117.243H361.05V119.263H362.006C362.76 119.271 363.137 118.942 363.137 118.276V118.276Z" fill="white"/>
<path d="M345.871 105.906C345.002 105.904 344.169 105.559 343.555 104.944C342.941 104.329 342.596 103.496 342.595 102.628V99.3496H349.149V102.628C349.148 103.497 348.802 104.33 348.188 104.945C347.573 105.56 346.74 105.905 345.871 105.906V105.906ZM344.272 101.026V102.628C344.272 103.052 344.44 103.459 344.74 103.759C345.04 104.06 345.446 104.229 345.871 104.229C346.295 104.229 346.702 104.06 347.002 103.759C347.303 103.459 347.472 103.052 347.472 102.628V101.026H344.272Z" fill="#0080FF"/>
<path d="M342.592 99.3535H345.878V96.0676H342.592V99.3535Z" fill="#0080FF"/>
<path d="M345.871 96.0693H349.156V92.7835H345.871V96.0693Z" fill="#0080FF"/>
<path d="M342.592 92.7861H345.878V89.5003H342.592V92.7861Z" fill="#0080FF"/>
<path d="M345.87 89.5029H349.156V86.2171H345.87V89.5029Z" fill="#0080FF"/>
<path d="M384.68 160.947C383.405 160.946 382.182 160.439 381.28 159.537C380.378 158.635 379.87 157.412 379.869 156.136V149.458H358.372C357.547 149.458 356.73 149.62 355.968 149.936C355.206 150.252 354.514 150.714 353.931 151.298C353.347 151.881 352.885 152.573 352.569 153.336C352.253 154.098 352.091 154.914 352.091 155.739V193.588C352.091 194.413 352.253 195.23 352.569 195.992C352.885 196.754 353.347 197.447 353.931 198.03C354.514 198.613 355.206 199.076 355.968 199.392C356.73 199.707 357.547 199.87 358.372 199.87H384.179C385.004 199.87 385.82 199.707 386.582 199.391C387.344 199.076 388.036 198.613 388.62 198.03C389.203 197.446 389.665 196.754 389.981 195.992C390.296 195.23 390.458 194.413 390.458 193.588V160.95L384.68 160.947Z" fill="white"/>
<path d="M390.458 160.947H384.681C383.405 160.946 382.182 160.439 381.28 159.537C380.378 158.635 379.871 157.412 379.87 156.136V149.458L390.458 160.947Z" fill="#0080FF"/>
<path d="M380.798 179.262H380.217C380.214 176.908 379.277 174.65 377.611 172.985C375.946 171.321 373.688 170.384 371.334 170.382C368.979 170.384 366.722 171.321 365.057 172.986C363.392 174.65 362.456 176.908 362.453 179.262H361.872C361.875 176.754 362.873 174.349 364.647 172.575C366.42 170.802 368.825 169.804 371.334 169.801C373.843 169.803 376.248 170.801 378.022 172.575C379.796 174.348 380.795 176.754 380.798 179.262V179.262Z" fill="#0080FF"/>
<path d="M384.781 169.801H357.887V170.382H384.781V169.801Z" fill="#0080FF"/>
<path d="M363.093 178.333H361.233V180.193H363.093V178.333Z" fill="#0080FF"/>
<path d="M381.437 178.333H379.577V180.193H381.437V178.333Z" fill="#0080FF"/>
<path d="M372.265 169.131H370.405V170.991H372.265V169.131Z" fill="#0080FF"/>
<path d="M357.857 170.993C358.371 170.993 358.788 170.576 358.788 170.062C358.788 169.548 358.371 169.131 357.857 169.131C357.343 169.131 356.926 169.548 356.926 170.062C356.926 170.576 357.343 170.993 357.857 170.993Z" fill="#0080FF"/>
<path d="M384.692 170.993C385.206 170.993 385.623 170.576 385.623 170.062C385.623 169.548 385.206 169.131 384.692 169.131C384.178 169.131 383.761 169.548 383.761 170.062C383.761 170.576 384.178 170.993 384.692 170.993Z" fill="#0080FF"/>
</g>
<defs>
<clipPath id="clip0_539_1964">
<rect width="400" height="184" fill="white"/>
</clipPath>
</defs>
</svg>
