<svg width="400" height="184" viewBox="0 0 400 184" fill="none" xmlns="http://www.w3.org/2000/svg">
<g clip-path="url(#clip0_539_1921)">
<rect width="400" height="184" fill="#E8EDF2"/>
<rect width="400" height="184" fill="#E3EAFC"/>
<rect x="-157" y="22.918" width="168.449" height="85.1604" rx="12" fill="white" fill-opacity="0.32"/>
<rect x="-157" y="22.918" width="168.449" height="85.1604" rx="12" stroke="#F6F8FA" stroke-width="2" stroke-dasharray="4 4"/>
<rect x="24.5508" y="22.918" width="168.449" height="85.1604" rx="12" fill="#0080FF"/>
<g clip-path="url(#clip1_539_1921)">
<mask id="mask0_539_1921" style="mask-type:luminance" maskUnits="userSpaceOnUse" x="35" y="35" width="76" height="13">
<path d="M110.376 35.3242H35.7806V47.3994H110.376V35.3242Z" fill="white"/>
</mask>
<g mask="url(#mask0_539_1921)">
<path d="M42.5346 41.3639C41.1911 42.0714 39.4534 42.5089 37.9452 42.1848C35.99 41.7622 35.3028 39.7719 36.1169 38.0423C37.1593 35.8103 39.8963 35.3323 42.112 35.3242H49.0685V36.9081C46.1695 36.7379 42.5306 38.4095 42.5306 41.3639C42.5306 44.3182 38.8971 45.9857 35.9981 45.8156V47.3994H42.9546C45.1703 47.3832 47.9072 46.9174 48.955 44.6814C49.7652 42.9517 49.0779 40.9561 47.1268 40.5375C45.6172 40.2134 43.8795 40.6523 42.5373 41.3584V41.3625L42.5346 41.3639Z" fill="white"/>
<path d="M56.9479 46.0153C55.9406 46.0153 55.1264 45.8181 54.5189 45.4347C53.9099 45.0512 53.5035 44.4746 53.3185 43.7401L53.2942 43.6456L55.013 43.2905L55.0373 43.3729C55.2588 44.1236 55.9069 44.4909 57.0208 44.4909C57.538 44.4909 57.9417 44.4152 58.2172 44.2654C58.4737 44.1236 58.6047 43.9251 58.6047 43.6537C58.6047 43.4836 58.5574 43.3499 58.4589 43.2392C58.3603 43.1285 58.2185 43.0339 58.0484 42.9745C57.862 42.9111 57.6487 42.8598 57.4084 42.8166C57.168 42.7733 56.9061 42.7369 56.6387 42.6978C56.37 42.6586 56.0932 42.6194 55.8245 42.5708C55.5558 42.5236 55.279 42.4479 55.0306 42.3494C54.7821 42.2508 54.5486 42.1198 54.3555 41.97C54.1624 41.8201 53.9922 41.6027 53.8734 41.338C53.7546 41.0734 53.6952 40.7655 53.6952 40.4131C53.6952 39.7097 53.9868 39.1371 54.5647 38.7064C55.1413 38.2757 55.915 38.0664 56.8871 38.0664C57.8593 38.0664 58.6128 38.2716 59.1947 38.6713C59.7753 39.0696 60.1547 39.6394 60.3127 40.3456L60.333 40.4361L58.5993 40.8033L58.579 40.7129C58.4926 40.3456 58.3022 40.0729 58.0025 39.8838C57.7027 39.6948 57.2949 39.5949 56.8021 39.5949C56.3754 39.5949 56.0433 39.6624 55.811 39.792C55.5936 39.9149 55.491 40.0877 55.491 40.3132C55.491 40.4712 55.5383 40.6022 55.6328 40.7008C55.7314 40.8074 55.8745 40.8938 56.0473 40.9532C56.2296 41.0167 56.4456 41.068 56.6873 41.1072C56.9277 41.1463 57.1923 41.1895 57.461 41.226C57.7297 41.2611 58.0065 41.3083 58.2833 41.3596C58.5601 41.411 58.8288 41.4933 59.0813 41.5973C59.3338 41.6999 59.5633 41.835 59.7564 41.9929C59.9495 42.1509 60.1196 42.3723 60.2385 42.641C60.3573 42.9097 60.4167 43.2257 60.4167 43.5767C60.4167 44.3356 60.1089 44.9351 59.4958 45.3699C58.8842 45.8047 58.0416 46.0099 56.9601 46.0099L56.952 46.0139L56.9479 46.0153Z" fill="white"/>
<path d="M68.0043 39.166C67.2617 38.4395 66.2854 38.0723 65.1161 38.0723C63.9468 38.0723 62.9828 38.4436 62.2401 39.1741C61.4975 39.9045 61.114 40.8767 61.114 42.0541C61.114 43.2315 61.4934 44.1915 62.2361 44.918C62.9787 45.6444 63.9468 46.0117 65.1161 46.0117C66.2854 46.0117 67.2455 45.6404 67.9962 44.9099C68.7469 44.1794 69.1264 43.2113 69.1264 42.0298C69.1264 40.8484 68.7469 39.8924 68.0043 39.166ZM66.6703 43.6893C66.2868 44.1038 65.7656 44.3131 65.1175 44.3131C64.4694 44.3131 63.9603 44.1038 63.5769 43.6893C63.1934 43.2747 62.9962 42.7171 62.9962 42.046C62.9962 41.375 63.1894 40.8173 63.5769 40.4028C63.9644 39.9883 64.4815 39.779 65.1175 39.779C65.7535 39.779 66.2868 39.9883 66.6703 40.4028C67.0537 40.8173 67.2468 41.3709 67.2468 42.046C67.2468 42.7212 67.0537 43.2747 66.6703 43.6893Z" fill="white"/>
<path d="M72.3774 45.8077V39.891H74.1111V38.2761H72.349V38.114C72.3409 37.447 72.7446 36.9015 73.4279 36.9137H74.6876V35.3285H73.3131C71.6982 35.3042 70.5208 36.4897 70.5437 38.0897V38.2761H69.4338V39.891H70.5437V45.8077H72.376H72.3774Z" fill="white"/>
<path d="M82.7659 45.8123V41.8034C82.7659 41.1945 82.9482 40.7016 83.3114 40.3303C83.6747 39.959 84.1214 39.7767 84.6387 39.7767C84.9667 39.7767 85.2705 39.8118 85.5395 39.8793L85.6419 39.9064L85.8433 38.1767L85.7569 38.1605C85.4878 38.1051 85.2275 38.0781 84.9667 38.0781C83.9987 38.0781 83.1899 38.4926 82.6566 39.2434V38.2793H80.9026V45.8123H82.7673H82.7659Z" fill="white"/>
<path d="M88.2007 38.2734H86.3479V45.7903H88.2007V38.2734Z" fill="white"/>
<path d="M88.2007 35.3281H86.3479V36.912H88.2007V35.3281Z" fill="white"/>
<path d="M93.7195 45.8064L96.9238 38.2734H94.9483L93.8098 41.1805C93.478 42.0177 93.1742 42.8872 92.9013 43.7635C92.6718 42.9736 92.3801 42.1122 92.0319 41.1926L90.891 38.2734H88.845L92.0454 45.8064H93.7195Z" fill="white"/>
<path d="M104.388 41.8943C104.38 41.3529 104.293 40.8438 104.135 40.3848C103.977 39.9271 103.737 39.5152 103.432 39.1723C103.128 38.8279 102.733 38.5525 102.263 38.3581C101.793 38.165 101.263 38.0664 100.683 38.0664C99.5254 38.0664 98.5738 38.4458 97.8542 39.1885C97.1354 39.9311 96.7722 40.8992 96.7722 42.0604C96.7722 43.2217 97.1152 44.1938 97.7957 44.9202C98.4753 45.6466 99.4109 46.0099 100.569 46.0099C101.497 46.0099 102.299 45.7925 102.951 45.3577C103.603 44.923 104.049 44.3113 104.266 43.5525L104.293 43.462L102.658 43.0313L102.631 43.1136C102.489 43.5092 102.239 43.8212 101.889 44.0453C101.538 44.2707 101.103 44.3856 100.592 44.3856C100.012 44.3856 99.5456 44.2154 99.2056 43.8832C98.8651 43.5511 98.6844 43.1285 98.6086 42.5803H104.388V41.8889V41.893V41.8943ZM98.6289 41.2152C98.7192 40.7534 98.9327 40.3699 99.265 40.081C99.6239 39.7691 100.075 39.6151 100.608 39.6151C101.142 39.6151 101.611 39.765 101.944 40.0621C102.256 40.3389 102.449 40.725 102.536 41.2152H98.6304H98.6289Z" fill="white"/>
<path d="M107.298 45.8123V41.8034C107.298 41.1945 107.481 40.7016 107.844 40.3303C108.207 39.959 108.654 39.7767 109.171 39.7767C109.499 39.7767 109.803 39.8118 110.072 39.8793L110.175 39.9064L110.376 38.1767L110.289 38.1605C110.021 38.1051 109.76 38.0781 109.515 38.0781C108.99 38.0781 108.512 38.1969 108.098 38.4251C107.743 38.6223 107.439 38.8991 107.193 39.2461V38.282H105.439V45.8109H107.3L107.298 45.8123Z" fill="white"/>
<path d="M77.4652 39.8907H79.7755V38.2745H77.4652V36.9121L74.1072 39.8907H75.6127V43.0463C75.5884 44.6503 76.7699 45.8305 78.382 45.8075H79.7728V44.2236H78.544C77.8568 44.2318 77.4571 43.6903 77.4652 43.0233V39.8907Z" fill="white"/>
</g>
</g>
<rect x="35.7808" y="65.0293" width="99.1979" height="11.2299" rx="5.61497" fill="#E8EDF2" fill-opacity="0.24"/>
<rect x="35.7808" y="80.0024" width="68.3155" height="11.2299" rx="5.61497" fill="#E8EDF2" fill-opacity="0.24"/>
<rect x="206.102" y="22.918" width="168.449" height="85.1604" rx="12" fill="white"/>
<g clip-path="url(#clip2_539_1921)">
<mask id="mask1_539_1921" style="mask-type:luminance" maskUnits="userSpaceOnUse" x="235" y="56" width="112" height="19">
<path d="M346.073 56.9668H235.112V74.9287H346.073V56.9668Z" fill="white"/>
</mask>
<g mask="url(#mask1_539_1921)">
<path d="M245.159 65.9508C243.161 67.0032 240.576 67.654 238.332 67.1719C235.424 66.5433 234.402 63.5827 235.613 61.0099C237.163 57.6898 241.235 56.9788 244.531 56.9668H254.878V59.3227C250.566 59.0697 245.153 61.5562 245.153 65.9508C245.153 70.3453 239.748 72.8258 235.436 72.5727V74.9287H245.784C249.08 74.9046 253.151 74.2116 254.71 70.8856C255.915 68.3127 254.892 65.3442 251.99 64.7216C249.745 64.2395 247.16 64.8923 245.163 65.9427V65.9487L245.159 65.9508Z" fill="#0080FF"/>
<path d="M266.599 72.8708C265.101 72.8708 263.889 72.5776 262.986 72.0072C262.08 71.4368 261.475 70.5791 261.2 69.4865L261.164 69.3459L263.721 68.8177L263.757 68.9402C264.086 70.0569 265.05 70.6033 266.707 70.6033C267.477 70.6033 268.077 70.4908 268.487 70.2678C268.868 70.0569 269.063 69.7617 269.063 69.358C269.063 69.1049 268.993 68.9061 268.846 68.7414C268.7 68.5767 268.489 68.4361 268.236 68.3477C267.959 68.2534 267.641 68.177 267.284 68.1127C266.926 68.0484 266.537 67.9942 266.139 67.936C265.739 67.8777 265.328 67.8195 264.928 67.7472C264.528 67.6769 264.116 67.5644 263.747 67.4178C263.377 67.2712 263.03 67.0763 262.743 66.8534C262.455 66.6305 262.202 66.3071 262.026 65.9134C261.849 65.5198 261.76 65.0618 261.76 64.5376C261.76 63.4912 262.194 62.6396 263.054 61.9989C263.912 61.3582 265.062 61.0469 266.508 61.0469C267.955 61.0469 269.075 61.3522 269.941 61.9467C270.805 62.5392 271.369 63.3868 271.604 64.4372L271.634 64.5717L269.055 65.1181L269.025 64.9835C268.897 64.4372 268.613 64.0315 268.167 63.7503C267.722 63.4691 267.115 63.3205 266.382 63.3205C265.747 63.3205 265.253 63.4209 264.908 63.6137C264.584 63.7965 264.432 64.0536 264.432 64.389C264.432 64.624 264.502 64.8188 264.643 64.9655C264.789 65.1241 265.002 65.2526 265.259 65.341C265.53 65.4354 265.852 65.5117 266.211 65.57C266.569 65.6283 266.962 65.6925 267.362 65.7467C267.762 65.799 268.174 65.8692 268.585 65.9455C268.997 66.0219 269.397 66.1444 269.772 66.2991C270.148 66.4517 270.489 66.6526 270.776 66.8875C271.064 67.1225 271.317 67.452 271.494 67.8517C271.67 68.2513 271.759 68.7213 271.759 69.2435C271.759 70.3723 271.301 71.2641 270.389 71.9107C269.479 72.5575 268.226 72.8628 266.617 72.8628L266.605 72.8688L266.599 72.8708Z" fill="#0080FF"/>
<path d="M283.045 62.6816C281.94 61.601 280.488 61.0547 278.749 61.0547C277.01 61.0547 275.576 61.607 274.471 62.6936C273.366 63.7802 272.796 65.2263 272.796 66.9777C272.796 68.7291 273.36 70.1571 274.465 71.2377C275.57 72.3183 277.01 72.8645 278.749 72.8645C280.488 72.8645 281.916 72.3123 283.033 71.2256C284.15 70.1391 284.714 68.699 284.714 66.9416C284.714 65.1841 284.15 63.7621 283.045 62.6816ZM281.061 69.41C280.49 70.0266 279.715 70.3379 278.751 70.3379C277.787 70.3379 277.03 70.0266 276.459 69.41C275.889 68.7934 275.596 67.9639 275.596 66.9656C275.596 65.9675 275.883 65.1379 276.459 64.5213C277.036 63.9047 277.805 63.5934 278.751 63.5934C279.697 63.5934 280.49 63.9047 281.061 64.5213C281.631 65.1379 281.918 65.9614 281.918 66.9656C281.918 67.9699 281.631 68.7934 281.061 69.41Z" fill="#0080FF"/>
<path d="M289.55 72.561V63.7599H292.129V61.3577H289.508V61.1167C289.496 60.1245 290.097 59.3131 291.113 59.3312H292.987V56.9732H290.942C288.54 56.937 286.789 58.7005 286.823 61.0806V61.3577H285.172V63.7599H286.823V72.561H289.548H289.55Z" fill="#0080FF"/>
<path d="M305.003 72.5671V66.6039C305.003 65.6981 305.274 64.965 305.815 64.4127C306.355 63.8603 307.019 63.5892 307.789 63.5892C308.277 63.5892 308.729 63.6414 309.129 63.7418L309.281 63.782L309.581 61.2091L309.452 61.185C309.052 61.1027 308.665 61.0625 308.277 61.0625C306.837 61.0625 305.634 61.6791 304.84 62.7958V61.3618H302.231V72.5671H305.005H305.003Z" fill="#0080FF"/>
<path d="M313.087 61.3535H310.331V72.5348H313.087V61.3535Z" fill="#0080FF"/>
<path d="M313.087 56.9727H310.331V59.3286H313.087V56.9727Z" fill="#0080FF"/>
<path d="M321.296 72.5588L326.063 61.3535H323.124L321.43 65.6778C320.937 66.9231 320.485 68.2165 320.079 69.52C319.738 68.3451 319.304 67.0637 318.786 65.6958L317.089 61.3535H314.045L318.806 72.5588H321.296Z" fill="#0080FF"/>
<path d="M337.165 66.737C337.153 65.9316 337.024 65.1744 336.789 64.4915C336.554 63.8107 336.197 63.1981 335.743 62.6879C335.291 62.1758 334.703 61.766 334.004 61.4768C333.305 61.1896 332.517 61.043 331.654 61.043C329.932 61.043 328.517 61.6074 327.446 62.712C326.377 63.8167 325.837 65.2568 325.837 66.984C325.837 68.7114 326.347 70.1575 327.359 71.2381C328.37 72.3186 329.762 72.8589 331.485 72.8589C332.865 72.8589 334.058 72.5356 335.028 71.8888C335.998 71.2421 336.661 70.3322 336.984 69.2035L337.024 69.0689L334.592 68.4282L334.552 68.5507C334.341 69.1392 333.969 69.6032 333.448 69.9365C332.925 70.2719 332.279 70.4427 331.519 70.4427C330.656 70.4427 329.962 70.1896 329.456 69.6955C328.95 69.2015 328.681 68.5728 328.568 67.7573H337.165V66.729V66.735V66.737ZM328.599 65.7268C328.733 65.0398 329.051 64.4694 329.545 64.0397C330.079 63.5757 330.75 63.3467 331.543 63.3467C332.337 63.3467 333.035 63.5696 333.53 64.0115C333.994 64.4233 334.281 64.9977 334.411 65.7268H328.601H328.599Z" fill="#0080FF"/>
<path d="M341.495 72.5671V66.6039C341.495 65.6981 341.767 64.965 342.307 64.4127C342.847 63.8603 343.512 63.5892 344.282 63.5892C344.769 63.5892 345.221 63.6414 345.621 63.7418L345.774 63.782L346.073 61.2091L345.944 61.185C345.545 61.1027 345.157 61.0625 344.793 61.0625C344.012 61.0625 343.301 61.2392 342.684 61.5787C342.156 61.8719 341.704 62.2837 341.339 62.7998V61.3658H338.73V72.5651H341.497L341.495 72.5671Z" fill="#0080FF"/>
<path d="M297.118 63.7608H300.555V61.3566H297.118V59.3301L292.123 63.7608H294.362V68.4546C294.326 70.8407 296.084 72.5961 298.482 72.5619H300.55V70.206H298.723C297.7 70.2181 297.106 69.4127 297.118 68.4205V63.7608Z" fill="#0080FF"/>
</g>
</g>
<rect x="387.652" y="22.918" width="168.449" height="85.1604" rx="12" fill="white" fill-opacity="0.32"/>
<rect x="387.652" y="22.918" width="168.449" height="85.1604" rx="12" stroke="#F6F8FA" stroke-width="2" stroke-dasharray="4 4"/>
</g>
<defs>
<clipPath id="clip0_539_1921">
<rect width="400" height="184" fill="white"/>
</clipPath>
<clipPath id="clip1_539_1921">
<rect width="74.8663" height="12.5582" fill="white" transform="translate(35.7808 35.084)"/>
</clipPath>
<clipPath id="clip2_539_1921">
<rect width="111.364" height="18.6804" fill="white" transform="translate(235.112 56.6074)"/>
</clipPath>
</defs>
</svg>
